<?xml version="1.0" encoding="UTF-8"?>
<!-- Created with Inkscape (http://www.inkscape.org/) -->
<svg width="147.7mm" height="30.847mm" version="1.1" viewBox="0 0 147.7 30.847" xmlns="http://www.w3.org/2000/svg">
 <g transform="translate(-26.742 -15.011)">
  <g fill="#666" stroke-width=".12772" aria-label="A complete runtime environment for GCC &amp; LLVM for 32 and 64 bit Windows">
   <path d="m65.617 37.173h-0.38317q-0.06642 0-0.10729-0.03321t-0.06131-0.0843l-0.3423-0.88385h-1.6425l-0.3423 0.88385q-0.01788 0.04598-0.06131 0.08174t-0.10729 0.03576h-0.38317l1.4637-3.6606h0.50323zm-2.3987-1.359h1.3666l-0.57476-1.4893q-0.0562-0.13794-0.10984-0.34486-0.0281 0.10473-0.0562 0.19414-0.02555 0.08685-0.05109 0.15327z"/>
   <path d="m68.76 35.045q-0.02044 0.0281-0.04087 0.04343-0.02044 0.01533-0.05875 0.01533-0.03832 0-0.0843-0.03065-0.04343-0.03321-0.1124-0.07153t-0.1686-0.06897q-0.09707-0.03321-0.24012-0.03321-0.18903 0-0.33464 0.06897-0.14561 0.06642-0.24523 0.19414-0.09707 0.12772-0.14816 0.30909-0.04854 0.18137-0.04854 0.40616 0 0.23501 0.05364 0.41894 0.05364 0.18137 0.15071 0.30654 0.09707 0.12262 0.23501 0.18903 0.1405 0.06386 0.3142 0.06386 0.16604 0 0.27333-0.03832 0.10729-0.04087 0.17881-0.08941 0.07153-0.04854 0.11751-0.08685 0.04598-0.04087 0.09196-0.04087 0.05875 0 0.08685 0.04343l0.12772 0.16604q-0.1686 0.20691-0.42149 0.30398-0.25289 0.09452-0.53389 0.09452-0.24268 0-0.45214-0.08941-0.20691-0.08941-0.36018-0.258-0.15327-0.17115-0.24268-0.41894-0.08685-0.24778-0.08685-0.56454 0-0.28866 0.07919-0.53389 0.08174-0.24523 0.23501-0.42149 0.15582-0.17881 0.38317-0.27844 0.22735-0.09962 0.52111-0.09962 0.27078 0 0.48024 0.08941 0.20947 0.08685 0.3704 0.24778z"/>
   <path d="m70.428 34.544q0.28355 0 0.5109 0.09452 0.2299 0.09452 0.38828 0.26822 0.16093 0.1737 0.24523 0.42149 0.08685 0.24523 0.08685 0.54921 0 0.30654-0.08685 0.55177-0.0843 0.24523-0.24523 0.41894-0.15838 0.1737-0.38828 0.26822-0.22735 0.09196-0.5109 0.09196t-0.51345-0.09196q-0.22735-0.09452-0.38828-0.26822t-0.24778-0.41894q-0.08685-0.24523-0.08685-0.55177 0-0.30398 0.08685-0.54921 0.08685-0.24778 0.24778-0.42149 0.16093-0.1737 0.38828-0.26822 0.2299-0.09452 0.51345-0.09452zm0 2.3092q0.38317 0 0.5722-0.25545 0.18903-0.258 0.18903-0.71781 0-0.46236-0.18903-0.72036t-0.5722-0.258q-0.19414 0-0.33719 0.06642t-0.24012 0.19159q-0.09452 0.12517-0.14305 0.30909-0.04598 0.18137-0.04598 0.41127t0.04598 0.41127q0.04854 0.18137 0.14305 0.30654 0.09707 0.12262 0.24012 0.18903 0.14305 0.06642 0.33719 0.06642z"/>
   <path d="m72.221 37.173v-2.5877h0.27078q0.09707 0 0.12262 0.09452l0.03321 0.26567q0.14305-0.17626 0.31931-0.28866 0.17881-0.1124 0.41383-0.1124 0.26311 0 0.42404 0.1456 0.16349 0.1456 0.23501 0.39339 0.05364-0.1405 0.1405-0.24268 0.08941-0.10218 0.19925-0.1686t0.23246-0.09707q0.12517-0.03065 0.25289-0.03065 0.20436 0 0.36274 0.06642 0.16093 0.06386 0.27078 0.18903 0.1124 0.12517 0.17115 0.30909 0.05875 0.18137 0.05875 0.41638v1.6476h-0.4547v-1.6476q0-0.30398-0.13283-0.45981-0.13283-0.15838-0.38573-0.15838-0.1124 0-0.21458 0.04087-0.09962 0.03832-0.17626 0.11495t-0.12262 0.19414q-0.04343 0.11495-0.04343 0.26822v1.6476h-0.4547v-1.6476q0-0.31165-0.12517-0.46492t-0.36529-0.15327q-0.1686 0-0.3142 0.09196-0.14305 0.08941-0.26311 0.24523v1.9286z"/>
   <path d="m76.415 38.049v-3.4639h0.27078q0.09707 0 0.12262 0.09452l0.03832 0.30654q0.16604-0.2018 0.37806-0.32442 0.21458-0.12262 0.49302-0.12262 0.22224 0 0.40361 0.08685 0.18137 0.0843 0.30909 0.25289 0.12772 0.16604 0.1967 0.41383 0.06897 0.24778 0.06897 0.56965 0 0.2861-0.07663 0.53389-0.07664 0.24523-0.21969 0.4266-0.14305 0.17881-0.35252 0.28355-0.20691 0.10218-0.46747 0.10218-0.24012 0-0.41127-0.07919-0.1686-0.07919-0.29887-0.22479v1.1444zm1.1521-3.142q-0.22224 0-0.39084 0.10218-0.16604 0.10218-0.30654 0.28866v1.2517q0.12517 0.1686 0.27333 0.23757 0.15071 0.06897 0.33464 0.06897 0.36018 0 0.55432-0.258t0.19414-0.73569q0-0.25289-0.04598-0.43426-0.04343-0.18137-0.12772-0.29632-0.0843-0.11751-0.20691-0.17115-0.12262-0.05364-0.27844-0.05364z"/>
   <path d="m79.741 33.41v3.7628h-0.4547v-3.7628z"/>
   <path d="m81.568 34.544q0.23246 0 0.42915 0.07919 0.1967 0.07663 0.33974 0.2248 0.14305 0.1456 0.22224 0.36274 0.08174 0.21458 0.08174 0.49046 0 0.10729-0.02299 0.14305t-0.08685 0.03576h-1.7217q0.0051 0.24523 0.06642 0.4266 0.06131 0.18137 0.1686 0.30398 0.10729 0.12006 0.25545 0.18137 0.14816 0.05875 0.33208 0.05875 0.17115 0 0.29376-0.03832 0.12517-0.04087 0.21458-0.08685t0.14816-0.0843q0.06131-0.04087 0.10473-0.04087 0.0562 0 0.08685 0.04343l0.12772 0.16604q-0.0843 0.10218-0.2018 0.17881-0.11751 0.07408-0.25289 0.12262-0.13283 0.04853-0.27588 0.07152-0.14305 0.02555-0.28355 0.02555-0.26822 0-0.49557-0.08941-0.2248-0.09196-0.39084-0.26566-0.16349-0.17626-0.25545-0.43426t-0.09196-0.59264q0-0.27078 0.08174-0.50579 0.0843-0.23501 0.24012-0.40616 0.15582-0.1737 0.38062-0.27078 0.22479-0.09962 0.50579-0.09962zm0.01022 0.33464q-0.32953 0-0.51856 0.19159-0.18903 0.18903-0.23501 0.52622h1.4075q0-0.15838-0.04343-0.28866-0.04343-0.13283-0.12772-0.22735-0.0843-0.09707-0.20691-0.14816-0.12006-0.05364-0.27588-0.05364z"/>
   <path d="m84.005 37.214q-0.30654 0-0.47258-0.17115-0.16349-0.17115-0.16349-0.49302v-1.5838h-0.31165q-0.04087 0-0.06897-0.02299-0.0281-0.02554-0.0281-0.07663v-0.18137l0.42404-0.05364 0.10473-0.79955q0.0051-0.03832 0.03321-0.06131 0.0281-0.02555 0.07152-0.02555h0.2299v0.89151h0.7408v0.32953h-0.7408v1.5531q0 0.16349 0.07919 0.24268t0.20436 0.07919q0.07153 0 0.12262-0.01788 0.05364-0.02044 0.09196-0.04343t0.06386-0.04087q0.0281-0.02044 0.04854-0.02044 0.03576 0 0.06386 0.04343l0.13283 0.21713q-0.11751 0.10984-0.28355 0.1737-0.16604 0.06131-0.3423 0.06131z"/>
   <path d="m86.15 34.544q0.23246 0 0.42915 0.07919 0.1967 0.07663 0.33975 0.2248 0.14305 0.1456 0.22224 0.36274 0.08174 0.21458 0.08174 0.49046 0 0.10729-0.02299 0.14305t-0.08685 0.03576h-1.7217q0.0051 0.24523 0.06642 0.4266 0.06131 0.18137 0.1686 0.30398 0.10729 0.12006 0.25545 0.18137 0.14816 0.05875 0.33208 0.05875 0.17115 0 0.29376-0.03832 0.12517-0.04087 0.21458-0.08685t0.14816-0.0843q0.06131-0.04087 0.10473-0.04087 0.0562 0 0.08685 0.04343l0.12772 0.16604q-0.0843 0.10218-0.2018 0.17881-0.11751 0.07408-0.25289 0.12262-0.13283 0.04853-0.27588 0.07152-0.14305 0.02555-0.28355 0.02555-0.26822 0-0.49557-0.08941-0.22479-0.09196-0.39084-0.26566-0.16349-0.17626-0.25545-0.43426t-0.09196-0.59264q0-0.27078 0.08174-0.50579 0.0843-0.23501 0.24012-0.40616 0.15582-0.1737 0.38062-0.27078 0.22479-0.09962 0.50579-0.09962zm0.01022 0.33464q-0.32953 0-0.51856 0.19159-0.18903 0.18903-0.23501 0.52622h1.4075q0-0.15838-0.04343-0.28866-0.04343-0.13283-0.12772-0.22735-0.0843-0.09707-0.20691-0.14816-0.12006-0.05364-0.27588-0.05364z"/>
   <path d="m88.789 37.173v-2.5877h0.26056q0.07408 0 0.10218 0.0281t0.03832 0.09707l0.03065 0.40361q0.13283-0.27078 0.32697-0.42149 0.1967-0.15327 0.45981-0.15327 0.10729 0 0.19414 0.02554 0.08685 0.02299 0.16093 0.06642l-0.05875 0.33975q-0.01788 0.06386-0.07919 0.06386-0.03576 0-0.10984-0.02299-0.07408-0.02554-0.20691-0.02554-0.23757 0-0.3985 0.13794-0.15838 0.13794-0.26567 0.40105v1.6476z"/>
   <path d="m91.241 34.585v1.6502q0 0.29377 0.13539 0.4547t0.40872 0.16093q0.19925 0 0.37551-0.09452t0.32442-0.26311v-1.9082h0.4547v2.5877h-0.27078q-0.09707 0-0.12262-0.09452l-0.03576-0.27844q-0.1686 0.18648-0.37806 0.30143-0.20947 0.1124-0.48024 0.1124-0.21202 0-0.37551-0.06897-0.16093-0.07153-0.27077-0.19925t-0.16604-0.30909q-0.05364-0.18137-0.05364-0.40105v-1.6502z"/>
   <path d="m93.689 37.173v-2.5877h0.27078q0.09707 0 0.12262 0.09452l0.03576 0.28099q0.1686-0.18648 0.37551-0.30143 0.20947-0.11495 0.4828-0.11495 0.21202 0 0.37295 0.07153 0.16349 0.06897 0.27078 0.19925 0.10984 0.12772 0.16604 0.30909t0.0562 0.40105v1.6476h-0.4547v-1.6476q0-0.29376-0.13539-0.4547-0.13283-0.16349-0.40872-0.16349-0.2018 0-0.37806 0.09707-0.1737 0.09707-0.32186 0.26311v1.9056z"/>
   <path d="m97.313 37.214q-0.30654 0-0.47258-0.17115-0.16349-0.17115-0.16349-0.49302v-1.5838h-0.31165q-0.04087 0-0.06897-0.02299-0.0281-0.02554-0.0281-0.07663v-0.18137l0.42404-0.05364 0.10473-0.79955q0.0051-0.03832 0.03321-0.06131 0.0281-0.02555 0.07153-0.02555h0.2299v0.89151h0.7408v0.32953h-0.7408v1.5531q0 0.16349 0.07919 0.24268t0.20436 0.07919q0.07153 0 0.12262-0.01788 0.05364-0.02044 0.09196-0.04343t0.06386-0.04087q0.0281-0.02044 0.04854-0.02044 0.03576 0 0.06386 0.04343l0.13283 0.21713q-0.11751 0.10984-0.28355 0.1737-0.16604 0.06131-0.3423 0.06131z"/>
   <path d="m98.941 34.585v2.5877h-0.4547v-2.5877zm0.10218-0.81232q0 0.06642-0.0281 0.12517-0.02554 0.0562-0.07153 0.10218-0.04343 0.04343-0.10218 0.06897t-0.12517 0.02554-0.12517-0.02554q-0.0562-0.02555-0.10218-0.06897-0.04343-0.04598-0.06897-0.10218-0.02554-0.05875-0.02554-0.12517t0.02554-0.12517q0.02554-0.06131 0.06897-0.10473 0.04598-0.04598 0.10218-0.07153 0.05875-0.02555 0.12517-0.02555t0.12517 0.02555 0.10218 0.07153q0.04598 0.04343 0.07153 0.10473 0.0281 0.05875 0.0281 0.12517z"/>
   <path d="m99.743 37.173v-2.5877h0.27077q0.0971 0 0.12262 0.09452l0.0332 0.26567q0.14305-0.17626 0.31931-0.28866 0.17881-0.1124 0.41382-0.1124 0.26311 0 0.42405 0.1456 0.16348 0.1456 0.23501 0.39339 0.0536-0.1405 0.1405-0.24268 0.0894-0.10218 0.19924-0.1686 0.10985-0.06642 0.23246-0.09707 0.12517-0.03065 0.2529-0.03065 0.20435 0 0.36273 0.06642 0.16093 0.06386 0.27078 0.18903 0.11239 0.12517 0.17115 0.30909 0.0588 0.18137 0.0588 0.41638v1.6476h-0.4547v-1.6476q0-0.30398-0.13283-0.45981-0.13283-0.15838-0.38573-0.15838-0.11239 0-0.21457 0.04087-0.0996 0.03832-0.17626 0.11495-0.0766 0.07663-0.12262 0.19414-0.0434 0.11495-0.0434 0.26822v1.6476h-0.4547v-1.6476q0-0.31165-0.12517-0.46492t-0.36529-0.15327q-0.1686 0-0.3142 0.09196-0.14305 0.08941-0.26311 0.24523v1.9286z"/>
   <path d="m104.96 34.544q0.23245 0 0.42915 0.07919 0.19669 0.07663 0.33974 0.2248 0.14306 0.1456 0.22224 0.36274 0.0817 0.21458 0.0817 0.49046 0 0.10729-0.023 0.14305t-0.0869 0.03576h-1.7217q5e-3 0.24523 0.0664 0.4266 0.0613 0.18137 0.1686 0.30398 0.10729 0.12006 0.25545 0.18137 0.14816 0.05875 0.33208 0.05875 0.17115 0 0.29376-0.03832 0.12517-0.04087 0.21458-0.08685 0.0894-0.04598 0.14816-0.0843 0.0613-0.04087 0.10473-0.04087 0.0562 0 0.0869 0.04343l0.12772 0.16604q-0.0843 0.10218-0.2018 0.17881-0.11751 0.07408-0.2529 0.12262-0.13283 0.04853-0.27588 0.07152-0.14305 0.02555-0.28355 0.02555-0.26822 0-0.49557-0.08941-0.22479-0.09196-0.39083-0.26566-0.16349-0.17626-0.25545-0.43426-0.092-0.258-0.092-0.59264 0-0.27078 0.0817-0.50579 0.0843-0.23501 0.24012-0.40616 0.15582-0.1737 0.38062-0.27078 0.22479-0.09962 0.50579-0.09962zm0.0102 0.33464q-0.32952 0-0.51856 0.19159-0.18903 0.18903-0.23501 0.52622h1.4075q0-0.15838-0.0434-0.28866-0.0434-0.13283-0.12772-0.22735-0.0843-0.09707-0.20691-0.14816-0.12006-0.05364-0.27589-0.05364z"/>
   <path d="m108.62 34.544q0.23246 0 0.42916 0.07919 0.19669 0.07663 0.33974 0.2248 0.14305 0.1456 0.22224 0.36274 0.0817 0.21458 0.0817 0.49046 0 0.10729-0.023 0.14305t-0.0869 0.03576h-1.7217q5e-3 0.24523 0.0664 0.4266 0.0613 0.18137 0.1686 0.30398 0.10728 0.12006 0.25544 0.18137 0.14816 0.05875 0.33209 0.05875 0.17115 0 0.29376-0.03832 0.12517-0.04087 0.21458-0.08685 0.0894-0.04598 0.14816-0.0843 0.0613-0.04087 0.10473-0.04087 0.0562 0 0.0868 0.04343l0.12773 0.16604q-0.0843 0.10218-0.20181 0.17881-0.1175 0.07408-0.25289 0.12262-0.13283 0.04853-0.27588 0.07152-0.14306 0.02555-0.28355 0.02555-0.26822 0-0.49557-0.08941-0.22479-0.09196-0.39084-0.26566-0.16348-0.17626-0.25544-0.43426-0.092-0.258-0.092-0.59264 0-0.27078 0.0817-0.50579 0.0843-0.23501 0.24012-0.40616 0.15582-0.1737 0.38062-0.27078 0.22479-0.09962 0.50578-0.09962zm0.0102 0.33464q-0.32953 0-0.51856 0.19159-0.18903 0.18903-0.23501 0.52622h1.4075q0-0.15838-0.0434-0.28866-0.0434-0.13283-0.12772-0.22735-0.0843-0.09707-0.20691-0.14816-0.12007-0.05364-0.27589-0.05364z"/>
   <path d="m110.28 37.173v-2.5877h0.27078q0.0971 0 0.12261 0.09452l0.0358 0.28099q0.16859-0.18648 0.37551-0.30143 0.20946-0.11495 0.48279-0.11495 0.21202 0 0.37296 0.07153 0.16348 0.06897 0.27077 0.19925 0.10984 0.12772 0.16604 0.30909t0.0562 0.40105v1.6476h-0.4547v-1.6476q0-0.29376-0.13538-0.4547-0.13284-0.16349-0.40872-0.16349-0.2018 0-0.37806 0.09707-0.17371 0.09707-0.32187 0.26311v1.9056z"/>
   <path d="m112.71 34.585h0.37295q0.0536 0 0.0894 0.0281t0.0511 0.06642l0.6565 1.6655q0.0358 0.09196 0.0562 0.18392t0.0383 0.18137q0.0204-0.08941 0.0434-0.18137t0.0588-0.18392l0.66417-1.6655q0.0153-0.04087 0.0485-0.06642 0.0358-0.0281 0.0869-0.0281h0.35507l-1.055 2.5877h-0.41127z"/>
   <path d="m116.16 34.585v2.5877h-0.4547v-2.5877zm0.10218-0.81232q0 0.06642-0.0281 0.12517-0.0255 0.0562-0.0715 0.10218-0.0434 0.04343-0.10217 0.06897-0.0588 0.02554-0.12517 0.02554-0.0664 0-0.12517-0.02554-0.0562-0.02555-0.10218-0.06897-0.0434-0.04598-0.069-0.10218-0.0255-0.05875-0.0255-0.12517t0.0255-0.12517q0.0255-0.06131 0.069-0.10473 0.046-0.04598 0.10218-0.07153 0.0587-0.02555 0.12517-0.02555 0.0664 0 0.12517 0.02555 0.0588 0.02555 0.10217 0.07153 0.046 0.04343 0.0715 0.10473 0.0281 0.05875 0.0281 0.12517z"/>
   <path d="m116.96 37.173v-2.5877h0.26056q0.0741 0 0.10217 0.0281 0.0281 0.0281 0.0383 0.09707l0.0307 0.40361q0.13283-0.27078 0.32697-0.42149 0.19669-0.15327 0.45981-0.15327 0.10728 0 0.19414 0.02554 0.0869 0.02299 0.16093 0.06642l-0.0588 0.33975q-0.0179 0.06386-0.0792 0.06386-0.0358 0-0.10985-0.02299-0.0741-0.02554-0.20691-0.02554-0.23757 0-0.3985 0.13794-0.15838 0.13794-0.26566 0.40105v1.6476z"/>
   <path d="m120.07 34.544q0.28354 0 0.51089 0.09452 0.22991 0.09452 0.38828 0.26822 0.16094 0.1737 0.24523 0.42149 0.0869 0.24523 0.0869 0.54921 0 0.30654-0.0869 0.55177-0.0843 0.24523-0.24523 0.41894-0.15837 0.1737-0.38828 0.26822-0.22735 0.09196-0.51089 0.09196-0.28355 0-0.51345-0.09196-0.22735-0.09452-0.38829-0.26822-0.16093-0.1737-0.24778-0.41894-0.0868-0.24523-0.0868-0.55177 0-0.30398 0.0868-0.54921 0.0868-0.24778 0.24778-0.42149 0.16094-0.1737 0.38829-0.26822 0.2299-0.09452 0.51345-0.09452zm0 2.3092q0.38317 0 0.5722-0.25545 0.18903-0.258 0.18903-0.71781 0-0.46236-0.18903-0.72036t-0.5722-0.258q-0.19414 0-0.3372 0.06642-0.14305 0.06642-0.24012 0.19159-0.0945 0.12517-0.14305 0.30909-0.046 0.18137-0.046 0.41127t0.046 0.41127q0.0485 0.18137 0.14305 0.30654 0.0971 0.12262 0.24012 0.18903 0.14306 0.06642 0.3372 0.06642z"/>
   <path d="m121.86 37.173v-2.5877h0.27077q0.0971 0 0.12262 0.09452l0.0358 0.28099q0.1686-0.18648 0.37551-0.30143 0.20947-0.11495 0.4828-0.11495 0.21202 0 0.37295 0.07153 0.16349 0.06897 0.27078 0.19925 0.10984 0.12772 0.16604 0.30909t0.0562 0.40105v1.6476h-0.4547v-1.6476q0-0.29376-0.13539-0.4547-0.13283-0.16349-0.40872-0.16349-0.2018 0-0.37806 0.09707-0.1737 0.09707-0.32186 0.26311v1.9056z"/>
   <path d="m124.7 37.173v-2.5877h0.27077q0.0971 0 0.12262 0.09452l0.0332 0.26567q0.14305-0.17626 0.31931-0.28866 0.17881-0.1124 0.41382-0.1124 0.26311 0 0.42405 0.1456 0.16348 0.1456 0.23501 0.39339 0.0536-0.1405 0.1405-0.24268 0.0894-0.10218 0.19924-0.1686 0.10985-0.06642 0.23246-0.09707 0.12517-0.03065 0.2529-0.03065 0.20435 0 0.36273 0.06642 0.16093 0.06386 0.27078 0.18903 0.11239 0.12517 0.17115 0.30909 0.0588 0.18137 0.0588 0.41638v1.6476h-0.4547v-1.6476q0-0.30398-0.13283-0.45981-0.13283-0.15838-0.38573-0.15838-0.11239 0-0.21457 0.04087-0.0996 0.03832-0.17626 0.11495-0.0766 0.07663-0.12262 0.19414-0.0434 0.11495-0.0434 0.26822v1.6476h-0.4547v-1.6476q0-0.31165-0.12517-0.46492t-0.36529-0.15327q-0.1686 0-0.3142 0.09196-0.14305 0.08941-0.26311 0.24523v1.9286z"/>
   <path d="m129.92 34.544q0.23246 0 0.42915 0.07919 0.1967 0.07663 0.33975 0.2248 0.14305 0.1456 0.22224 0.36274 0.0817 0.21458 0.0817 0.49046 0 0.10729-0.023 0.14305t-0.0868 0.03576h-1.7217q5e-3 0.24523 0.0664 0.4266 0.0613 0.18137 0.16859 0.30398 0.10729 0.12006 0.25545 0.18137 0.14816 0.05875 0.33208 0.05875 0.17115 0 0.29377-0.03832 0.12517-0.04087 0.21457-0.08685t0.14816-0.0843q0.0613-0.04087 0.10474-0.04087 0.0562 0 0.0868 0.04343l0.12772 0.16604q-0.0843 0.10218-0.2018 0.17881-0.11751 0.07408-0.25289 0.12262-0.13284 0.04853-0.27589 0.07152-0.14305 0.02555-0.28355 0.02555-0.26822 0-0.49556-0.08941-0.2248-0.09196-0.39084-0.26566-0.16349-0.17626-0.25545-0.43426-0.092-0.258-0.092-0.59264 0-0.27078 0.0817-0.50579 0.0843-0.23501 0.24013-0.40616 0.15582-0.1737 0.38061-0.27078 0.2248-0.09962 0.50579-0.09962zm0.0102 0.33464q-0.32953 0-0.51856 0.19159-0.18903 0.18903-0.23501 0.52622h1.4075q0-0.15838-0.0434-0.28866-0.0434-0.13283-0.12773-0.22735-0.0843-0.09707-0.20691-0.14816-0.12006-0.05364-0.27588-0.05364z"/>
   <path d="m131.57 37.173v-2.5877h0.27077q0.0971 0 0.12262 0.09452l0.0358 0.28099q0.1686-0.18648 0.37551-0.30143 0.20947-0.11495 0.48279-0.11495 0.21203 0 0.37296 0.07153 0.16349 0.06897 0.27077 0.19925 0.10985 0.12772 0.16604 0.30909 0.0562 0.18137 0.0562 0.40105v1.6476h-0.45469v-1.6476q0-0.29376-0.13539-0.4547-0.13283-0.16349-0.40872-0.16349-0.2018 0-0.37806 0.09707-0.17371 0.09707-0.32187 0.26311v1.9056z"/>
   <path d="m135.2 37.214q-0.30654 0-0.47258-0.17115-0.16349-0.17115-0.16349-0.49302v-1.5838h-0.31165q-0.0409 0-0.069-0.02299-0.0281-0.02554-0.0281-0.07663v-0.18137l0.42405-0.05364 0.10473-0.79955q5e-3 -0.03832 0.0332-0.06131 0.0281-0.02555 0.0715-0.02555h0.22991v0.89151h0.7408v0.32953h-0.7408v1.5531q0 0.16349 0.0792 0.24268t0.20436 0.07919q0.0715 0 0.12261-0.01788 0.0536-0.02044 0.092-0.04343 0.0383-0.02299 0.0639-0.04087 0.0281-0.02044 0.0485-0.02044 0.0358 0 0.0639 0.04343l0.13283 0.21713q-0.1175 0.10984-0.28354 0.1737-0.16604 0.06131-0.3423 0.06131z"/>
   <path d="m137.41 37.173v-2.1994l-0.2861-0.03321q-0.0537-0.01277-0.0894-0.03832-0.0332-0.0281-0.0332-0.07919v-0.18648h0.40872v-0.25034q0-0.22224 0.0613-0.39339 0.0639-0.1737 0.17881-0.29121 0.11751-0.12006 0.28099-0.18137 0.16349-0.06131 0.36785-0.06131 0.1737 0 0.32186 0.05109l-0.0102 0.22735q-3e-3 0.05109-0.0434 0.06131-0.0409 0.01022-0.11495 0.01022h-0.0792q-0.11751 0-0.21458 0.03065-0.0945 0.03065-0.16348 0.09962-0.069 0.06897-0.10729 0.18137-0.0358 0.1124-0.0358 0.27844v0.23757h0.74846v0.32953h-0.73314v2.2071z"/>
   <path d="m140.07 34.544q0.28354 0 0.51089 0.09452 0.2299 0.09452 0.38828 0.26822 0.16093 0.1737 0.24523 0.42149 0.0868 0.24523 0.0868 0.54921 0 0.30654-0.0868 0.55177-0.0843 0.24523-0.24523 0.41894-0.15838 0.1737-0.38828 0.26822-0.22735 0.09196-0.51089 0.09196-0.28355 0-0.51345-0.09196-0.22735-0.09452-0.38829-0.26822-0.16093-0.1737-0.24778-0.41894-0.0868-0.24523-0.0868-0.55177 0-0.30398 0.0868-0.54921 0.0868-0.24778 0.24778-0.42149 0.16094-0.1737 0.38829-0.26822 0.2299-0.09452 0.51345-0.09452zm0 2.3092q0.38317 0 0.5722-0.25545 0.18903-0.258 0.18903-0.71781 0-0.46236-0.18903-0.72036t-0.5722-0.258q-0.19414 0-0.3372 0.06642-0.14305 0.06642-0.24012 0.19159-0.0945 0.12517-0.14305 0.30909-0.046 0.18137-0.046 0.41127t0.046 0.41127q0.0485 0.18137 0.14305 0.30654 0.0971 0.12262 0.24012 0.18903 0.14306 0.06642 0.3372 0.06642z"/>
   <path d="m141.87 37.173v-2.5877h0.26056q0.0741 0 0.10218 0.0281 0.0281 0.0281 0.0383 0.09707l0.0306 0.40361q0.13283-0.27078 0.32697-0.42149 0.1967-0.15327 0.45981-0.15327 0.10729 0 0.19414 0.02554 0.0868 0.02299 0.16093 0.06642l-0.0588 0.33975q-0.0179 0.06386-0.0792 0.06386-0.0358 0-0.10984-0.02299-0.0741-0.02554-0.20692-0.02554-0.23756 0-0.39849 0.13794-0.15838 0.13794-0.26567 0.40105v1.6476z"/>
   <path d="m146.61 36.812q0.14816 0 0.27077-0.01277 0.12517-0.01533 0.23501-0.04343 0.10985-0.0281 0.20692-0.06642 0.0971-0.04087 0.19414-0.09196v-0.80722h-0.5671q-0.0485 0-0.0792-0.0281-0.0281-0.0281-0.0281-0.06897v-0.28099h1.124v1.405q-0.13795 0.09962-0.28866 0.1737-0.14816 0.07408-0.31931 0.12517-0.1686 0.04854-0.36274 0.07153-0.19414 0.02555-0.42148 0.02555-0.3985 0-0.73059-0.13539-0.33208-0.13794-0.5722-0.38317-0.24012-0.24778-0.37551-0.59264-0.13283-0.34485-0.13283-0.75868 0-0.41894 0.13028-0.76379 0.13283-0.34486 0.37551-0.59008 0.24523-0.24778 0.59008-0.38317 0.34741-0.13539 0.77656-0.13539 0.21713 0 0.40361 0.03321 0.18648 0.03065 0.34486 0.09196 0.16093 0.05875 0.29631 0.14561 0.13539 0.0843 0.2529 0.19159l-0.1405 0.22479q-0.0434 0.06897-0.1124 0.06897-0.0409 0-0.0894-0.0281-0.0639-0.03576-0.14305-0.08685-0.0792-0.05109-0.19414-0.09707-0.1124-0.04853-0.26822-0.08174-0.15327-0.03321-0.36529-0.03321-0.3091 0-0.55944 0.10218-0.25033 0.09963-0.42659 0.28866-0.17626 0.18648-0.27078 0.4547-0.0945 0.26567-0.0945 0.59775 0 0.34741 0.0971 0.62074 0.0996 0.27078 0.27843 0.45981 0.17882 0.18903 0.42405 0.28866 0.24523 0.09962 0.54155 0.09962z"/>
   <path d="m151.31 36.417q0.0409 0 0.0741 0.03321l0.19414 0.21202q-0.2248 0.26056-0.54666 0.40616-0.31931 0.1456-0.77145 0.1456-0.39595 0-0.71781-0.13539-0.32187-0.13794-0.54922-0.38317-0.22735-0.24778-0.35251-0.59264-0.12517-0.34485-0.12517-0.75868t0.13283-0.75868q0.13539-0.34486 0.37806-0.59264 0.24268-0.24778 0.57987-0.38317 0.33974-0.13794 0.74846-0.13794 0.40361 0 0.69482 0.12517 0.29377 0.12517 0.52111 0.33975l-0.16093 0.22735q-0.0179 0.02555-0.0409 0.04343-0.023 0.01533-0.0664 0.01533-0.0332 0-0.0715-0.02299-0.0358-0.02555-0.0868-0.06131-0.0511-0.03576-0.12006-0.07663-0.069-0.04087-0.16349-0.07664-0.0945-0.03576-0.21969-0.05875-0.12517-0.02554-0.28865-0.02554-0.29377 0-0.539 0.10218-0.24267 0.09963-0.41893 0.2861-0.17626 0.18648-0.27589 0.4547-0.0971 0.26822-0.0971 0.6003 0 0.3423 0.0971 0.61052 0.0996 0.26822 0.26822 0.4547 0.17115 0.18392 0.40361 0.28099t0.50068 0.09707q0.16349 0 0.29376-0.01788 0.13028-0.02044 0.24013-0.06131 0.11239-0.04087 0.20691-0.10218 0.0971-0.06386 0.19414-0.15071 0.0434-0.03832 0.0843-0.03832z"/>
   <path d="m154.81 36.417q0.0409 0 0.0741 0.03321l0.19414 0.21202q-0.22479 0.26056-0.54666 0.40616-0.31931 0.1456-0.77145 0.1456-0.39594 0-0.71781-0.13539-0.32186-0.13794-0.54921-0.38317-0.22735-0.24778-0.35252-0.59264-0.12517-0.34485-0.12517-0.75868t0.13283-0.75868q0.13539-0.34486 0.37807-0.59264 0.24267-0.24778 0.57986-0.38317 0.33975-0.13794 0.74847-0.13794 0.4036 0 0.69481 0.12517 0.29377 0.12517 0.52112 0.33975l-0.16093 0.22735q-0.0179 0.02555-0.0409 0.04343-0.023 0.01533-0.0664 0.01533-0.0332 0-0.0715-0.02299-0.0358-0.02555-0.0868-0.06131-0.0511-0.03576-0.12006-0.07663-0.069-0.04087-0.16349-0.07664-0.0945-0.03576-0.21968-0.05875-0.12517-0.02554-0.28866-0.02554-0.29376 0-0.53899 0.10218-0.24268 0.09963-0.41894 0.2861-0.17626 0.18648-0.27588 0.4547-0.0971 0.26822-0.0971 0.6003 0 0.3423 0.0971 0.61052 0.0996 0.26822 0.26822 0.4547 0.17115 0.18392 0.40361 0.28099 0.23245 0.09707 0.50067 0.09707 0.16349 0 0.29377-0.01788 0.13028-0.02044 0.24012-0.06131 0.1124-0.04087 0.20691-0.10218 0.0971-0.06386 0.19414-0.15071 0.0434-0.03832 0.0843-0.03832z"/>
   <path d="m157.96 33.471q0.2018 0 0.36784 0.06642 0.16604 0.06386 0.2861 0.17115 0.12262 0.10729 0.19159 0.25034 0.0715 0.1405 0.0817 0.29376l-0.28355 0.0562q-0.0128 0.0026-0.023 0.0026-0.0332 0-0.0639-0.01788-0.0281-0.01788-0.0409-0.06386-0.0179-0.06642-0.0588-0.13794-0.0383-0.07153-0.10218-0.13028-0.0613-0.05875-0.15072-0.09707-0.0868-0.03832-0.20435-0.03832-0.12773 0-0.22991 0.04087t-0.17626 0.11495q-0.0715 0.07152-0.11239 0.17115-0.0383 0.09707-0.0383 0.21202 0 0.08941 0.0204 0.17115 0.023 0.08174 0.0664 0.16604 0.0434 0.08174 0.1124 0.17115 0.069 0.08685 0.16604 0.18392l1.0524 1.0703q0.0971-0.17115 0.15326-0.35763 0.0588-0.18903 0.0792-0.37806 5e-3 -0.04854 0.0307-0.07663 0.0255-0.0281 0.0715-0.0281h0.28099q-5e-3 0.29376-0.0945 0.57731-0.0894 0.28355-0.258 0.53133l0.76634 0.77656h-0.43937q-0.0741 0-0.12006-0.01788-0.046-0.01788-0.10218-0.07408l-0.36784-0.3704q-0.24013 0.23246-0.55433 0.36784-0.31164 0.13539-0.68715 0.13539-0.20436 0-0.40106-0.06897-0.19669-0.06897-0.35251-0.19925-0.15327-0.13283-0.24779-0.32186-0.0945-0.18903-0.0945-0.4266 0-0.17881 0.0588-0.33719 0.0613-0.16093 0.16604-0.29632 0.10729-0.13539 0.25289-0.24268 0.14561-0.10729 0.31931-0.18392-0.15582-0.1967-0.2299-0.38317-0.0741-0.18648-0.0741-0.38573 0-0.18648 0.0664-0.34996 0.069-0.16349 0.19669-0.28355 0.12773-0.12262 0.30909-0.19159 0.18393-0.07153 0.41128-0.07153zm-1.0141 2.6899q0 0.16604 0.0613 0.29377 0.0613 0.12517 0.16094 0.21202 0.0996 0.08685 0.22735 0.13283 0.12772 0.04343 0.26055 0.04343 0.2861 0 0.51345-0.10473t0.40106-0.27844l-1.0806-1.0908q-0.27077 0.1456-0.40872 0.34996-0.13538 0.2018-0.13538 0.44192z"/>
   <path d="m161.79 36.756h1.5838v0.41638h-2.0794v-3.6606h0.49557z"/>
   <path d="m164.42 36.756h1.5838v0.41638h-2.0793v-3.6606h0.49557z"/>
   <path d="m165.66 33.512h0.39594q0.0664 0 0.10729 0.03321 0.0409 0.03321 0.0613 0.0843l1.0346 2.5826q0.0358 0.08685 0.0639 0.18903 0.0307 0.10218 0.0588 0.21202 0.023-0.10984 0.0485-0.21202 0.0281-0.10218 0.0639-0.18903l1.0295-2.5826q0.0179-0.04343 0.0613-0.07919 0.0434-0.03832 0.10729-0.03832h0.39849l-1.4918 3.6606h-0.44704z"/>
   <path d="m171.36 35.849q0.0358 0.06131 0.0613 0.13028 0.0281 0.06642 0.0536 0.13539 0.0256-0.07153 0.0537-0.13539 0.0281-0.06642 0.0639-0.13283l1.2389-2.2505q0.0332-0.05875 0.069-0.07153 0.0358-0.01277 0.10218-0.01277h0.36529v3.6606h-0.43426v-2.6899q0-0.05364 3e-3 -0.11495t8e-3 -0.12517l-1.2542 2.2888q-0.0639 0.11495-0.17882 0.11495h-0.0715q-0.11495 0-0.17881-0.11495l-1.2824-2.2965q8e-3 0.06642 0.0102 0.13028 5e-3 0.06386 5e-3 0.11751v2.6899h-0.43426v-3.6606h0.36529q0.0664 0 0.10218 0.01277 0.0358 0.01277 0.069 0.07153l1.2645 2.2531z"/>
   <path d="m62.636 43.53v-2.1994l-0.2861-0.03321q-0.05364-0.01277-0.08941-0.03832-0.03321-0.0281-0.03321-0.07919v-0.18648h0.40872v-0.25034q0-0.22224 0.06131-0.39339 0.06386-0.1737 0.17881-0.29121 0.11751-0.12006 0.28099-0.18137 0.16349-0.06131 0.36784-0.06131 0.1737 0 0.32186 0.05109l-0.01022 0.22735q-0.0026 0.05109-0.04343 0.06131-0.04087 0.01022-0.11495 0.01022h-0.07919q-0.11751 0-0.21458 0.03065-0.09452 0.03065-0.16349 0.09963-0.06897 0.06897-0.10729 0.18137-0.03576 0.1124-0.03576 0.27844v0.23757h0.74846v0.32953h-0.73314v2.2071z"/>
   <path d="m65.303 40.901q0.28355 0 0.5109 0.09452 0.2299 0.09452 0.38828 0.26822 0.16093 0.1737 0.24523 0.42149 0.08685 0.24523 0.08685 0.54921 0 0.30654-0.08685 0.55177-0.0843 0.24523-0.24523 0.41894-0.15838 0.1737-0.38828 0.26822-0.22735 0.09196-0.5109 0.09196t-0.51345-0.09196q-0.22735-0.09451-0.38828-0.26822-0.16093-0.1737-0.24778-0.41894-0.08685-0.24523-0.08685-0.55177 0-0.30398 0.08685-0.54921 0.08685-0.24778 0.24778-0.42149 0.16093-0.1737 0.38828-0.26822 0.2299-0.09452 0.51345-0.09452zm0 2.3092q0.38317 0 0.5722-0.25545 0.18903-0.258 0.18903-0.71781 0-0.46236-0.18903-0.72036t-0.5722-0.258q-0.19414 0-0.33719 0.06642t-0.24012 0.19159q-0.09452 0.12517-0.14305 0.30909-0.04598 0.18137-0.04598 0.41127t0.04598 0.41127q0.04854 0.18137 0.14305 0.30654 0.09707 0.12262 0.24012 0.18903 0.14305 0.06642 0.33719 0.06642z"/>
   <path d="m67.097 43.53v-2.5877h0.26056q0.07408 0 0.10218 0.0281t0.03832 0.09707l0.03065 0.40361q0.13283-0.27078 0.32697-0.42149 0.1967-0.15327 0.45981-0.15327 0.10729 0 0.19414 0.02555 0.08685 0.02299 0.16093 0.06642l-0.05875 0.33975q-0.01788 0.06386-0.07919 0.06386-0.03576 0-0.10984-0.02299-0.07408-0.02555-0.20691-0.02555-0.23757 0-0.3985 0.13794-0.15838 0.13794-0.26567 0.40105v1.6476z"/>
   <path d="m71.352 39.829q0.23246 0 0.42915 0.06642t0.33719 0.18903q0.14305 0.12262 0.22224 0.29632t0.07919 0.38573q0 0.1737-0.04598 0.31165-0.04343 0.13539-0.12772 0.24012-0.08174 0.10218-0.19925 0.1737-0.11751 0.07153-0.26311 0.11495 0.35763 0.09452 0.53644 0.31676 0.18137 0.22224 0.18137 0.55688 0 0.25289-0.09707 0.4547-0.09452 0.2018-0.26056 0.34486-0.16604 0.1405-0.38828 0.21713-0.21969 0.07408-0.47258 0.07408-0.29121 0-0.49812-0.07153-0.20691-0.07408-0.34996-0.2018t-0.23501-0.30143q-0.09196-0.17626-0.15582-0.38062l0.19414-0.08174q0.05364-0.02299 0.10729-0.02299 0.05109 0 0.08941 0.02299 0.04087 0.02044 0.06131 0.06642 0.0051 0.01022 0.01022 0.02299 0.0051 0.01022 0.01022 0.02299 0.03576 0.07408 0.08685 0.1686 0.05109 0.09196 0.13794 0.1737t0.21458 0.13794q0.13028 0.0562 0.32186 0.0562t0.33464-0.06131q0.1456-0.06386 0.24012-0.16349 0.09707-0.09962 0.1456-0.22224 0.04854-0.12262 0.04854-0.24268 0-0.14816-0.04087-0.27078-0.03832-0.12262-0.14305-0.21202-0.10218-0.08941-0.2861-0.1405-0.18137-0.05109-0.46747-0.05109v-0.32953q0.23246-0.0026 0.39594-0.05109 0.16604-0.04854 0.27077-0.13283 0.10473-0.0843 0.15072-0.2018 0.04854-0.11751 0.04854-0.26056 0-0.15838-0.05109-0.27588-0.04853-0.11751-0.13539-0.19414-0.08685-0.07663-0.20691-0.11495-0.11751-0.03832-0.25545-0.03832t-0.25545 0.04087-0.20947 0.11495q-0.08941 0.07153-0.15072 0.1737-0.06131 0.09962-0.09196 0.21713-0.02044 0.07408-0.06131 0.10729t-0.10473 0.03321q-0.01277 0-0.0281 0-0.01277-0.0026-0.03065-0.0051l-0.23757-0.04087q0.03576-0.25034 0.13794-0.44192 0.10218-0.19414 0.258-0.32442 0.15838-0.13028 0.36018-0.1967 0.20436-0.06897 0.43937-0.06897z"/>
   <path d="m74.267 39.829q0.23246 0 0.43426 0.06897t0.34741 0.2018q0.14816 0.13028 0.23246 0.31931t0.0843 0.42915q0 0.20436-0.06131 0.37806t-0.16604 0.33464q-0.10473 0.15838-0.24268 0.30909-0.13539 0.14816-0.28866 0.30398l-0.96304 0.98603q0.10218-0.0281 0.20691-0.04343 0.10473-0.01788 0.2018-0.01788h1.2262q0.07408 0 0.11751 0.04343t0.04343 0.1124v0.27588h-2.4421v-0.15582q0-0.04854 0.01788-0.09962 0.02044-0.05109 0.06386-0.09452l1.1725-1.1776q0.1456-0.14816 0.26566-0.28355 0.12006-0.13794 0.20436-0.27588 0.08685-0.13794 0.13283-0.27844 0.04598-0.14305 0.04598-0.30398t-0.05109-0.28099q-0.05109-0.12262-0.1405-0.2018-0.08941-0.07919-0.20947-0.11751-0.12006-0.04087-0.258-0.04087t-0.25545 0.04087-0.20947 0.11495q-0.08941 0.07153-0.15327 0.17115-0.06131 0.09963-0.08685 0.21969-0.02044 0.07408-0.06131 0.10729t-0.10729 0.03321q-0.01277 0-0.0281 0-0.01277-0.0026-0.03065-0.0051l-0.23757-0.04087q0.03576-0.25034 0.13794-0.44192 0.10218-0.19414 0.258-0.32442 0.15838-0.13028 0.36018-0.1967 0.20436-0.06897 0.43937-0.06897z"/>
   <path d="m78.954 43.53h-0.2018q-0.06642 0-0.10729-0.02044t-0.05364-0.08685l-0.05109-0.24012q-0.10218 0.09196-0.19925 0.16604-0.09707 0.07153-0.20436 0.12262-0.10729 0.04854-0.2299 0.07408-0.12006 0.02554-0.26822 0.02554-0.15071 0-0.28355-0.04087-0.13028-0.04343-0.22735-0.12772-0.09707-0.0843-0.15582-0.21202-0.0562-0.13028-0.0562-0.30654 0-0.15327 0.0843-0.29377 0.0843-0.14305 0.27078-0.25289 0.18903-0.10984 0.49302-0.17881 0.30398-0.07153 0.74335-0.08174v-0.2018q0-0.30143-0.13028-0.4547-0.12772-0.15582-0.38062-0.15582-0.16604 0-0.28099 0.04343-0.1124 0.04087-0.1967 0.09452-0.08174 0.05109-0.14305 0.09452-0.05875 0.04087-0.11751 0.04087-0.04598 0-0.08174-0.02299-0.03321-0.02555-0.05364-0.06131l-0.08174-0.14561q0.21458-0.20691 0.46236-0.30909t0.54921-0.10218q0.21713 0 0.38573 0.07153t0.28355 0.19925 0.1737 0.30909 0.05875 0.3985zm-1.1802-0.27844q0.12006 0 0.21968-0.02299 0.09963-0.02554 0.18648-0.06897 0.08941-0.04598 0.1686-0.10984 0.08174-0.06386 0.15838-0.14561v-0.539q-0.3142 0.01022-0.53389 0.05109-0.21968 0.03832-0.35763 0.10218-0.13794 0.06386-0.2018 0.15071-0.06131 0.08685-0.06131 0.19414 0 0.10218 0.03321 0.17626t0.08941 0.12262q0.0562 0.04598 0.13283 0.06897 0.07663 0.02044 0.16604 0.02044z"/>
   <path d="m79.644 43.53v-2.5877h0.27077q0.09707 0 0.12262 0.09452l0.03576 0.28099q0.1686-0.18648 0.37551-0.30143 0.20947-0.11495 0.4828-0.11495 0.21202 0 0.37295 0.07153 0.16349 0.06897 0.27077 0.19925 0.10984 0.12772 0.16604 0.30909t0.0562 0.40105v1.6476h-0.4547v-1.6476q0-0.29376-0.13539-0.4547-0.13283-0.16349-0.40872-0.16349-0.2018 0-0.37806 0.09707-0.1737 0.09707-0.32186 0.26311v1.9056z"/>
   <path d="m84.306 43.53q-0.09707 0-0.12262-0.09452l-0.04087-0.3142q-0.16604 0.2018-0.38062 0.32442-0.21202 0.12006-0.48791 0.12006-0.22224 0-0.40361-0.0843-0.18137-0.08685-0.30909-0.25289t-0.1967-0.41382q-0.06897-0.24778-0.06897-0.56965 0-0.2861 0.07663-0.53133 0.07663-0.24778 0.21969-0.42915 0.1456-0.18137 0.35252-0.28355 0.20691-0.10473 0.47002-0.10473 0.23757 0 0.40616 0.08174 0.1686 0.07919 0.30143 0.2248v-1.4356h0.4547v3.7627zm-0.8813-0.33208q0.22224 0 0.38828-0.10218 0.1686-0.10218 0.30909-0.28866v-1.2517q-0.12517-0.1686-0.27588-0.23501-0.14816-0.06897-0.32953-0.06897-0.36274 0-0.55688 0.258t-0.19414 0.73569q0 0.25289 0.04343 0.43426 0.04343 0.17881 0.12772 0.29632 0.0843 0.11495 0.20691 0.1686 0.12262 0.05364 0.28099 0.05364z"/>
   <path d="m87.614 41.287q0.21969 0 0.41638 0.07408 0.1967 0.07153 0.34485 0.21202 0.14816 0.13794 0.23501 0.3423 0.08685 0.2018 0.08685 0.46236 0 0.25289-0.09196 0.47002t-0.258 0.37806q-0.16349 0.16093-0.39594 0.25289-0.23246 0.09196-0.5109 0.09196-0.27588 0-0.50068-0.08685-0.22224-0.08941-0.38062-0.25034-0.15838-0.16349-0.24523-0.39339-0.0843-0.23246-0.0843-0.51856 0-0.24012 0.10729-0.5109t0.33975-0.58242l0.92728-1.2491q0.03576-0.04598 0.09963-0.07664 0.06386-0.03321 0.1456-0.03321h0.40361l-1.2696 1.6068q0.13028-0.08941 0.28866-0.13794 0.15838-0.05109 0.3423-0.05109zm-0.94516 1.1138q0 0.17626 0.05109 0.32186 0.05109 0.14561 0.14816 0.25034 0.09963 0.10473 0.24012 0.16349 0.14305 0.0562 0.32442 0.0562 0.18392 0 0.33208-0.05875t0.25289-0.16349q0.10729-0.10473 0.16349-0.24778 0.05875-0.14305 0.05875-0.31165 0-0.17881-0.0562-0.32186-0.0562-0.1456-0.15838-0.24523-0.10218-0.10218-0.24523-0.15582t-0.3142-0.05364q-0.18392 0-0.33208 0.06386-0.14816 0.06131-0.25289 0.1686-0.10218 0.10473-0.15838 0.24523-0.05364 0.13794-0.05364 0.28866z"/>
   <path d="m91.224 42.209h0.55432v0.26056q0 0.04087-0.02555 0.06897-0.02299 0.0281-0.07408 0.0281h-0.4547v0.96304h-0.40105v-0.96304h-1.6221q-0.05109 0-0.08941-0.0281-0.03576-0.03065-0.04598-0.07408l-0.04598-0.23246 1.7805-2.3629h0.42404zm-0.40105-1.5097q0-0.06642 0.0026-0.14305 0.0051-0.07663 0.01788-0.15838l-1.3309 1.8111h1.3104z"/>
   <path d="m93.254 43.53v-3.7627h0.45725v1.548q0.16093-0.18648 0.36784-0.29887 0.20947-0.11495 0.47769-0.11495 0.22479 0 0.40616 0.0843t0.30909 0.25289q0.12772 0.16604 0.1967 0.41383 0.06897 0.24523 0.06897 0.5671 0 0.2861-0.07663 0.53389-0.07663 0.24523-0.22224 0.4266-0.14305 0.17881-0.35252 0.28355-0.20691 0.10218-0.46747 0.10218-0.25034 0-0.4266-0.09707-0.1737-0.09707-0.30398-0.27077l-0.02299 0.23501q-0.02043 0.09707-0.11751 0.09707zm1.1546-2.2658q-0.22224 0-0.39084 0.10218-0.16604 0.10218-0.30654 0.28866v1.2517q0.12262 0.1686 0.27078 0.23757 0.15071 0.06897 0.33464 0.06897 0.36274 0 0.55688-0.258t0.19414-0.73569q0-0.25289-0.04598-0.43426-0.04343-0.18137-0.12772-0.29632-0.0843-0.11751-0.20691-0.17115-0.12262-0.05364-0.27844-0.05364z"/>
   <path d="m96.601 40.942v2.5877h-0.4547v-2.5877zm0.10218-0.81232q0 0.06642-0.0281 0.12517-0.02554 0.0562-0.07153 0.10218-0.04343 0.04343-0.10218 0.06897t-0.12517 0.02554-0.12517-0.02554q-0.0562-0.02554-0.10218-0.06897-0.04343-0.04598-0.06897-0.10218-0.02554-0.05875-0.02554-0.12517t0.02554-0.12517q0.02555-0.06131 0.06897-0.10473 0.04598-0.04598 0.10218-0.07153 0.05875-0.02554 0.12517-0.02554t0.12517 0.02554q0.05875 0.02555 0.10218 0.07153 0.04598 0.04343 0.07153 0.10473 0.0281 0.05875 0.0281 0.12517z"/>
   <path d="m98.187 43.571q-0.30654 0-0.47258-0.17115-0.16349-0.17115-0.16349-0.49301v-1.5838h-0.31165q-0.04087 0-0.06897-0.02299-0.0281-0.02555-0.0281-0.07663v-0.18137l0.42404-0.05364 0.10473-0.79955q0.0051-0.03832 0.03321-0.06131 0.0281-0.02555 0.07153-0.02555h0.2299v0.89151h0.7408v0.32953h-0.7408v1.5531q0 0.16349 0.07919 0.24268t0.20436 0.07919q0.07152 0 0.12262-0.01788 0.05364-0.02044 0.09196-0.04343t0.06386-0.04087q0.0281-0.02043 0.04854-0.02043 0.03576 0 0.06386 0.04343l0.13283 0.21713q-0.11751 0.10984-0.28355 0.1737-0.16604 0.06131-0.3423 0.06131z"/>
   <path d="m99.957 39.869h0.41127q0.0664 0 0.10985 0.03321 0.0434 0.03321 0.0588 0.0843l0.75613 2.5443q0.0204 0.06897 0.0358 0.14816 0.0179 0.07919 0.0332 0.16604 0.0179-0.08685 0.0358-0.16604 0.0179-0.08174 0.0409-0.14816l0.86086-2.5443q0.0153-0.04343 0.0588-0.07919 0.046-0.03832 0.10985-0.03832h0.14305q0.0664 0 0.10729 0.03321 0.0434 0.03321 0.0613 0.0843l0.85575 2.5443q0.046 0.13283 0.0817 0.30398 0.0153-0.0843 0.0281-0.16093t0.0332-0.14305l0.75868-2.5443q0.0128-0.04598 0.0562-0.08174 0.046-0.03576 0.10985-0.03576h0.38572l-1.1418 3.6606h-0.44463l-0.92728-2.792q-0.0281-0.07919-0.0511-0.18392-0.0128 0.05109-0.0255 0.09962-0.0102 0.04598-0.023 0.0843l-0.93239 2.792h-0.44448z"/>
   <path d="m106.01 40.942v2.5877h-0.4547v-2.5877zm0.10218-0.81232q0 0.06642-0.0281 0.12517-0.0256 0.0562-0.0715 0.10218-0.0434 0.04343-0.10218 0.06897-0.0588 0.02554-0.12517 0.02554-0.0664 0-0.12517-0.02554-0.0562-0.02554-0.10217-0.06897-0.0434-0.04598-0.069-0.10218-0.0255-0.05875-0.0255-0.12517t0.0255-0.12517q0.0255-0.06131 0.069-0.10473 0.046-0.04598 0.10217-0.07153 0.0588-0.02554 0.12517-0.02554 0.0664 0 0.12517 0.02554 0.0588 0.02555 0.10218 0.07153 0.046 0.04343 0.0715 0.10473 0.0281 0.05875 0.0281 0.12517z"/>
   <path d="m106.81 43.53v-2.5877h0.27077q0.0971 0 0.12262 0.09452l0.0358 0.28099q0.1686-0.18648 0.37551-0.30143 0.20947-0.11495 0.4828-0.11495 0.21202 0 0.37295 0.07153 0.16349 0.06897 0.27077 0.19925 0.10985 0.12772 0.16605 0.30909t0.0562 0.40105v1.6476h-0.45469v-1.6476q0-0.29376-0.13539-0.4547-0.13283-0.16349-0.40872-0.16349-0.2018 0-0.37806 0.09707-0.17371 0.09707-0.32187 0.26311v1.9056z"/>
   <path d="m111.47 43.53q-0.0971 0-0.12261-0.09452l-0.0409-0.3142q-0.16604 0.2018-0.38061 0.32442-0.21202 0.12006-0.48791 0.12006-0.22224 0-0.40361-0.0843-0.18136-0.08685-0.30909-0.25289-0.12772-0.16604-0.19669-0.41382-0.069-0.24778-0.069-0.56965 0-0.2861 0.0766-0.53133 0.0766-0.24778 0.21969-0.42915 0.1456-0.18137 0.35251-0.28355 0.20692-0.10473 0.47003-0.10473 0.23756 0 0.40616 0.08174 0.1686 0.07919 0.30143 0.2248v-1.4356h0.4547v3.7627zm-0.88129-0.33208q0.22224 0 0.38828-0.10218 0.16859-0.10218 0.30909-0.28866v-1.2517q-0.12517-0.1686-0.27588-0.23501-0.14816-0.06897-0.32953-0.06897-0.36274 0-0.55688 0.258t-0.19414 0.73569q0 0.25289 0.0434 0.43426 0.0434 0.17881 0.12772 0.29632 0.0843 0.11495 0.20691 0.1686 0.12262 0.05364 0.281 0.05364z"/>
   <path d="m113.55 40.901q0.28355 0 0.5109 0.09452 0.2299 0.09452 0.38828 0.26822 0.16093 0.1737 0.24523 0.42149 0.0868 0.24523 0.0868 0.54921 0 0.30654-0.0868 0.55177-0.0843 0.24523-0.24523 0.41894-0.15838 0.1737-0.38828 0.26822-0.22735 0.09196-0.5109 0.09196t-0.51345-0.09196q-0.22735-0.09451-0.38828-0.26822-0.16093-0.1737-0.24778-0.41894-0.0869-0.24523-0.0869-0.55177 0-0.30398 0.0869-0.54921 0.0868-0.24778 0.24778-0.42149 0.16093-0.1737 0.38828-0.26822 0.2299-0.09452 0.51345-0.09452zm0 2.3092q0.38317 0 0.5722-0.25545 0.18904-0.258 0.18904-0.71781 0-0.46236-0.18904-0.72036-0.18903-0.258-0.5722-0.258-0.19414 0-0.33719 0.06642t-0.24012 0.19159q-0.0945 0.12517-0.14305 0.30909-0.046 0.18137-0.046 0.41127t0.046 0.41127q0.0485 0.18137 0.14305 0.30654 0.0971 0.12262 0.24012 0.18903 0.14305 0.06642 0.33719 0.06642z"/>
   <path d="m115.01 40.942h0.35762q0.0562 0 0.092 0.0281t0.0485 0.06642l0.49557 1.6655q0.0204 0.09196 0.0383 0.17881 0.0179 0.0843 0.0306 0.17115 0.0204-0.08685 0.046-0.17115 0.0256-0.08685 0.0537-0.17881l0.54665-1.6757q0.0128-0.03832 0.0434-0.06386 0.0332-0.02555 0.0817-0.02555h0.1967q0.0511 0 0.0843 0.02555 0.0332 0.02554 0.046 0.06386l0.53388 1.6757q0.0281 0.08941 0.0485 0.17626 0.023 0.08685 0.0434 0.17115 0.0128-0.0843 0.0332-0.17626t0.0434-0.17115l0.50579-1.6655q0.0128-0.04087 0.0485-0.06642 0.0358-0.0281 0.0843-0.0281h0.3423l-0.83769 2.5877h-0.36018q-0.0664 0-0.092-0.08685l-0.57221-1.7549q-0.0204-0.05875-0.0332-0.11751-0.0128-0.06131-0.0255-0.12006-0.0128 0.05875-0.0255 0.12006-0.0128 0.06131-0.0332 0.12006l-0.57987 1.7524q-0.0281 0.08685-0.10473 0.08685h-0.3423z"/>
   <path d="m120.74 41.369q-0.0306 0.0562-0.0945 0.0562-0.0383 0-0.0868-0.0281t-0.12006-0.06131q-0.069-0.03576-0.16605-0.06386-0.0971-0.03065-0.2299-0.03065-0.11495 0-0.20691 0.03065-0.092 0.0281-0.15838 0.07919-0.0639 0.05109-0.0996 0.12006-0.0332 0.06642-0.0332 0.1456 0 0.09963 0.0562 0.16604 0.0588 0.06642 0.15326 0.11495 0.0945 0.04854 0.21458 0.08685 0.12006 0.03576 0.24523 0.07919 0.12773 0.04087 0.24779 0.09196t0.21457 0.12772q0.0945 0.07663 0.15072 0.18903 0.0588 0.10984 0.0588 0.26567 0 0.17881-0.0639 0.33208-0.0639 0.15071-0.18903 0.26311-0.12517 0.10984-0.30654 0.1737t-0.41894 0.06386q-0.27077 0-0.49046-0.08685-0.21968-0.08941-0.37295-0.22735l0.10729-0.1737q0.0204-0.03321 0.0485-0.05109t0.0741-0.01788 0.0971 0.03576 0.12262 0.07919q0.0741 0.04343 0.17626 0.07919 0.10473 0.03576 0.26055 0.03576 0.13284 0 0.23246-0.03321 0.0996-0.03576 0.16604-0.09452 0.0664-0.05875 0.0971-0.13539 0.0332-0.07664 0.0332-0.16349 0-0.10729-0.0587-0.17626-0.0562-0.07153-0.15072-0.12006-0.0945-0.05109-0.21713-0.08685-0.12006-0.03832-0.24778-0.07919-0.12517-0.04087-0.24779-0.09196-0.12006-0.05364-0.21457-0.13283-0.0945-0.07919-0.15327-0.19414-0.0562-0.11751-0.0562-0.28355 0-0.14816 0.0613-0.28355 0.0613-0.13794 0.17881-0.24012 0.11751-0.10473 0.28866-0.16604t0.39083-0.06131q0.25545 0 0.45726 0.08174 0.20435 0.07919 0.35251 0.21969z"/>
  </g>
  <g transform="matrix(.23396 0 0 .23396 21.278 11.027)">
   <rect transform="rotate(-45)" x="-32.024" y="65.054" width="32.529" height="32.529" fill="#71b21f"/>
   <rect transform="rotate(-45)" x="-72.49" y="105.52" width="32.529" height="32.529" fill="#71b21f"/>
   <rect transform="rotate(-45)" x="-32.024" y="105.52" width="32.529" height="32.529"/>
   <rect transform="rotate(-45)" x="8.4423" y="65.054" width="32.529" height="32.529"/>
   <rect transform="rotate(-45)" x="8.4423" y="105.52" width="32.529" height="32.529" fill="#71b21f"/>
   <rect transform="rotate(-45)" x="48.908" y="105.52" width="32.529" height="32.529"/>
   <rect transform="rotate(-45)" x="-32.024" y="145.99" width="32.529" height="32.529" fill="#71b21f"/>
   <rect transform="rotate(-45)" x="8.4423" y="145.99" width="32.529" height="32.529"/>
  </g>
  <g transform="matrix(.86169 0 0 .86169 8.681 2.7121)" fill="#1a1a1a" stroke-width=".26458" aria-label="MinGW-w64">
   <path d="m70.959 25.75q0.19191 0.36124 0.34996 0.75636 0.16933 0.38382 0.32738 0.77893 0.15804-0.4064 0.32738-0.80151 0.16933-0.39511 0.36124-0.75636l4.8316-9.0424q0.09031-0.16933 0.18062-0.27093 0.1016-0.1016 0.21449-0.14676 0.12418-0.04516 0.27093-0.05644 0.14676-0.01129 0.34996-0.01129h2.2916v16.324h-2.6755v-10.544q0-0.29351 0.01129-0.64347 0.02258-0.34996 0.05645-0.7112l-4.9332 9.2569q-0.16933 0.31609-0.44027 0.49671-0.27093 0.16933-0.63218 0.16933h-0.41769q-0.36124 0-0.63218-0.16933-0.27093-0.18062-0.44027-0.49671l-5.001-9.2908q0.04515 0.37253 0.05644 0.73378 0.02258 0.34996 0.02258 0.65476v10.544h-2.6755v-16.324h2.2916q0.2032 0 0.34996 0.01129t0.25964 0.05644q0.12418 0.04516 0.22578 0.14676t0.19191 0.27093l4.8768 9.065z"/>
   <path d="m86.572 20.941v11.582h-2.7884v-11.582zm0.41769-3.3754q0 0.36124-0.14676 0.67733t-0.39511 0.55316q-0.23707 0.23707-0.56444 0.38382-0.32738 0.13547-0.69991 0.13547-0.36124 0-0.68862-0.13547-0.31609-0.14676-0.55316-0.38382t-0.38382-0.55316q-0.13547-0.31609-0.13547-0.67733 0-0.37253 0.13547-0.69991 0.14676-0.32738 0.38382-0.56444t0.55316-0.37253q0.32738-0.14676 0.68862-0.14676 0.37253 0 0.69991 0.14676 0.32738 0.13547 0.56444 0.37253 0.24836 0.23707 0.39511 0.56444 0.14676 0.32738 0.14676 0.69991z"/>
   <path d="m89.722 32.523v-11.582h1.7046q0.54187 0 0.7112 0.508l0.19191 0.9144q0.34996-0.36124 0.73378-0.65476 0.39511-0.29351 0.82409-0.508 0.44027-0.21449 0.93698-0.32738t1.0837-0.11289q0.94827 0 1.682 0.32738 0.73378 0.31609 1.2192 0.90311 0.49671 0.57573 0.74507 1.3885 0.25964 0.80151 0.25964 1.7724v7.3717h-2.7884v-7.3717q0-1.0612-0.49671-1.6369-0.48542-0.58702-1.4676-0.58702-0.72249 0-1.3547 0.32738-0.63218 0.32738-1.1966 0.89182v8.3764z"/>
   <path d="m110.21 30.288q1.0273 0 1.7836-0.18062 0.76765-0.19191 1.4563-0.51929v-2.969h-2.0433q-0.29351 0-0.46284-0.15804-0.16934-0.16933-0.16934-0.4064v-1.7159h5.43v6.604q-0.62088 0.45156-1.2982 0.79022-0.66604 0.32738-1.4337 0.54187-0.75636 0.21449-1.6256 0.31609-0.86925 0.11289-1.874 0.11289-1.7836 0-3.2851-0.62089-1.5014-0.62089-2.5964-1.7272-1.095-1.1063-1.7159-2.6416-0.6096-1.5353-0.6096-3.3528 0-1.8401 0.59831-3.3754t1.6933-2.6416q1.1063-1.1063 2.6755-1.7159t3.5221-0.6096q1.9981 0 3.4544 0.59831 1.4676 0.58702 2.4836 1.5353l-0.88054 1.3772q-0.25964 0.41769-0.68862 0.41769-0.27093 0-0.55316-0.18062-0.36124-0.21449-0.74506-0.42898-0.37254-0.21449-0.83538-0.37253-0.45156-0.15804-1.0273-0.25964-0.56445-0.1016-1.3095-0.1016-1.2079 0-2.19 0.4064-0.97085 0.4064-1.6595 1.1628t-1.0612 1.8175q-0.37253 1.0612-0.37253 2.3707 0 1.4111 0.39511 2.5174 0.39511 1.095 1.1063 1.8514 0.7112 0.75636 1.6933 1.1628 0.98213 0.39511 2.1449 0.39511z"/>
   <path d="m117.53 16.2h2.5513q0.39511 0 0.65476 0.19191 0.27093 0.18062 0.36124 0.49671l2.7771 9.7649q0.1016 0.36124 0.18062 0.79022 0.0903 0.41769 0.16934 0.89182 0.0903-0.47413 0.19191-0.89182 0.11289-0.42898 0.23706-0.79022l3.206-9.7649q0.0903-0.25964 0.34996-0.47413 0.27093-0.21449 0.65475-0.21449h0.89183q0.39511 0 0.65475 0.19191 0.25965 0.18062 0.36125 0.49671l3.1835 9.7649q0.24835 0.72249 0.42898 1.603 0.079-0.44027 0.15804-0.84667 0.0903-0.4064 0.18062-0.75636l2.7771-9.7649q0.079-0.28222 0.34996-0.48542 0.27093-0.2032 0.65475-0.2032h2.382l-5.0687 16.324h-2.7432l-3.5673-11.153q-0.0677-0.21449-0.14675-0.46284-0.0677-0.24836-0.13547-0.53058-0.0677 0.28222-0.14676 0.53058-0.0677 0.24836-0.13546 0.46284l-3.6012 11.153h-2.7432z"/>
   <path d="m141.74 24.542h5.8476v2.3255h-5.8476z"/>
   <path d="m148.8 20.941h2.2126q0.31609 0 0.53057 0.14676 0.21449 0.14676 0.27094 0.37253l1.6595 6.1863q0.13546 0.508 0.21449 0.99342 0.0903 0.48542 0.16933 0.97085 0.12418-0.48542 0.25964-0.97085 0.14676-0.48542 0.3048-0.99342l1.9191-6.2089q0.0677-0.22578 0.27093-0.37253 0.2032-0.14676 0.47413-0.14676h1.2305q0.3048 0 0.508 0.14676 0.20321 0.14676 0.27094 0.37253l1.8965 6.3218q0.14676 0.48542 0.25965 0.94827 0.12418 0.45156 0.23707 0.9144 0.079-0.48542 0.16933-0.97085 0.1016-0.48542 0.24835-1.0047l1.7159-6.1863q0.0564-0.22578 0.27093-0.37253 0.21449-0.14676 0.49671-0.14676h2.111l-3.6689 11.582h-2.2465q-0.36124 0-0.51929-0.49671l-2.0884-6.6943q-0.1016-0.32738-0.19191-0.65476-0.079-0.33867-0.13547-0.66604-0.0677 0.33867-0.14676 0.67733-0.079 0.32738-0.18062 0.66604l-2.111 6.6717q-0.15805 0.49671-0.6096 0.49671h-2.1336z"/>
   <path d="m174.14 22.33q0.92569 0 1.7949 0.3048 0.88054 0.3048 1.5466 0.92569 0.66605 0.6096 1.0724 1.524t0.4064 2.1336q0 1.1402-0.41769 2.1449-0.41769 0.99342-1.174 1.7385-0.75635 0.74507-1.8288 1.174-1.0612 0.42898-2.3481 0.42898-1.3095 0-2.3481-0.41769t-1.7724-1.1628q-0.73378-0.75636-1.1289-1.8062-0.38382-1.0612-0.38382-2.3481 0-1.1515 0.46285-2.3594 0.47413-1.2192 1.4563-2.5287l3.8947-5.2268q0.2032-0.27093 0.58703-0.46284 0.39511-0.19191 0.90311-0.19191h2.4836l-4.8429 5.9267q-0.15805 0.19191-0.3048 0.36124-0.13547 0.16933-0.27094 0.34996 0.47414-0.23707 1.016-0.37253 0.55315-0.13547 1.1966-0.13547zm-3.906 5.0687q0 0.67733 0.18062 1.2418 0.19191 0.55316 0.55316 0.94827 0.37253 0.39511 0.9144 0.62089 0.54187 0.21449 1.2531 0.21449 0.66604 0 1.2192-0.22578 0.56444-0.22578 0.95955-0.63218 0.40641-0.4064 0.63218-0.94827 0.22578-0.55316 0.22578-1.1966 0-0.69991-0.21449-1.2531-0.21449-0.56444-0.6096-0.94827-0.39511-0.39511-0.94827-0.59831-0.55315-0.2032-1.2192-0.2032-0.66604 0-1.2079 0.22578t-0.93698 0.63218q-0.38382 0.39511-0.59831 0.94827-0.2032 0.54187-0.2032 1.174z"/>
   <path d="m190.31 26.371h2.0546v1.6143q0 0.22578-0.14675 0.39511-0.14676 0.15804-0.42898 0.15804h-1.4788v3.985h-2.4384v-3.985h-6.8862q-0.28222 0-0.49671-0.16933-0.21449-0.18062-0.27093-0.44027l-0.28223-1.4111 7.7329-10.329h2.6416zm-2.4384-5.3396q0-0.36124 0.0226-0.77893t0.079-0.86924l-5.0687 6.9878h4.9671z"/>
  </g>
  <text transform="scale(.26458)" font-family="Russo" font-size="40px" style="shape-inside:url(#rect38789);white-space:pre" xml:space="preserve"/>
  <text transform="matrix(.26458 0 0 .26458 11.062 9.6323)" font-family="Russo" font-size="40px" style="shape-inside:url(#rect68251);white-space:pre" xml:space="preserve"/>
 </g>
</svg>
