<?xml version="1.0" encoding="UTF-8"?>
<!-- Created with Inkscape (http://www.inkscape.org/) -->
<svg width="139.97mm" height="30.847mm" version="1.1" viewBox="0 0 139.97 30.847" xmlns="http://www.w3.org/2000/svg">
 <g transform="translate(-26.742 -15.011)">
  <g transform="translate(1.0583)" fill="#666" stroke-width=".12772" aria-label="A complete runtime environment for GCC &amp; LLVM for 32 and 64 bit Windows">
   <g stroke-width=".033793" aria-label="A complete runtime environment for GCC &amp; LLVM for 32-bit (x86), 64-bit (x64), and ARM64 Windows">
    <path d="m64.142 37.375h-0.34396q-0.05962 0-0.09631-0.02981t-0.05503-0.07567l-0.30727-0.7934h-1.4744l-0.30727 0.7934q-0.01605 0.04128-0.05503 0.07338t-0.09631 0.0321h-0.34396l1.3139-3.2859h0.45173zm-2.1532-1.2199h1.2268l-0.51594-1.3369q-0.05045-0.12382-0.0986-0.30956-0.02522 0.09402-0.05045 0.17427-0.02293 0.07796-0.04586 0.13758zm5.1059-0.69021q-0.01834 0.02522-0.03669 0.03898-0.01834 0.01376-0.05274 0.01376t-0.07567-0.02752q-0.03898-0.02981-0.1009-0.06421-0.06191-0.0344-0.15134-0.06191-0.08714-0.02981-0.21555-0.02981-0.16969 0-0.30039 0.06191-0.1307 0.05962-0.22013 0.17427-0.08714 0.11465-0.133 0.27746-0.04357 0.16281-0.04357 0.3646 0 0.21096 0.04815 0.37606 0.04815 0.16281 0.13529 0.27517 0.08714 0.11007 0.21096 0.16969 0.12612 0.05733 0.28205 0.05733 0.14905 0 0.24536-0.0344 0.09631-0.03669 0.16051-0.08026 0.06421-0.04357 0.10548-0.07796 0.04127-0.03669 0.08255-0.03669 0.05274 0 0.07796 0.03898l0.11465 0.14905q-0.15134 0.18574-0.37835 0.27287-0.22701 0.08484-0.47925 0.08484-0.21784 0-0.40587-0.08026-0.18574-0.08026-0.32332-0.2316-0.13758-0.15364-0.21784-0.37606-0.07796-0.22243-0.07796-0.50676 0-0.25912 0.07108-0.47925 0.07338-0.22013 0.21096-0.37835 0.13988-0.16051 0.34396-0.24994t0.46778-0.08943q0.24306 0 0.43109 0.08026 0.18803 0.07796 0.33249 0.22243zm1.5635-0.44944q0.25453 0 0.45861 0.08484 0.20638 0.08484 0.34854 0.24077 0.14446 0.15593 0.22013 0.37835 0.07796 0.22013 0.07796 0.49301 0 0.27517-0.07796 0.4953-0.07567 0.22013-0.22013 0.37606-0.14217 0.15593-0.34854 0.24077-0.20408 0.08255-0.45861 0.08255t-0.4609-0.08255q-0.20408-0.08484-0.34854-0.24077t-0.22243-0.37606q-0.07796-0.22013-0.07796-0.4953 0-0.27287 0.07796-0.49301 0.07796-0.22243 0.22243-0.37835 0.14446-0.15593 0.34854-0.24077 0.20638-0.08484 0.4609-0.08484zm0 2.0729q0.34396 0 0.51364-0.2293 0.16969-0.2316 0.16969-0.64435 0-0.41504-0.16969-0.64664t-0.51364-0.2316q-0.17427 0-0.30268 0.05962t-0.21555 0.17198q-0.08484 0.11236-0.12841 0.27746-0.04127 0.16281-0.04127 0.36918t0.04127 0.36918q0.04357 0.16281 0.12841 0.27517 0.08714 0.11007 0.21555 0.16969t0.30268 0.05962zm1.6759 0.28663v-2.3229h0.24306q0.08714 0 0.11007 0.08484l0.02981 0.23848q0.12841-0.15822 0.28663-0.25912 0.16051-0.1009 0.37148-0.1009 0.23618 0 0.38065 0.1307 0.14676 0.1307 0.21096 0.35313 0.04815-0.12612 0.12612-0.21784 0.08026-0.09172 0.17886-0.15134t0.20867-0.08714q0.11236-0.02752 0.22701-0.02752 0.18344 0 0.32561 0.05962 0.14446 0.05733 0.24306 0.16969 0.10089 0.11236 0.15363 0.27746 0.05274 0.16281 0.05274 0.37377v1.479h-0.40816v-1.479q0-0.27287-0.11924-0.41275-0.11924-0.14217-0.34625-0.14217-0.1009 0-0.19262 0.03669-0.08943 0.0344-0.15822 0.10319t-0.11007 0.17427q-0.03898 0.10319-0.03898 0.24077v1.479h-0.40817v-1.479q0-0.27975-0.11236-0.41734-0.11236-0.13758-0.32791-0.13758-0.15134 0-0.28205 0.08255-0.12841 0.08026-0.23618 0.22013v1.7313zm3.8313 0.78652v-3.1094h0.24306q0.08714 0 0.11007 0.08484l0.0344 0.27517q0.14905-0.18115 0.33937-0.29122 0.19262-0.11007 0.44256-0.11007 0.1995 0 0.3623 0.07796 0.16281 0.07567 0.27746 0.22701 0.11465 0.14905 0.17657 0.37148 0.06191 0.22243 0.06191 0.51135 0 0.25682-0.06879 0.47925-0.06879 0.22013-0.1972 0.38294-0.12841 0.16051-0.31644 0.25453-0.18574 0.09172-0.41963 0.09172-0.21555 0-0.36918-0.07109-0.15134-0.07108-0.26829-0.20179v1.0273zm1.0342-2.8205q-0.1995 0-0.35084 0.09172-0.14905 0.09172-0.27517 0.25912v1.1236q0.11236 0.15134 0.24536 0.21326 0.13529 0.06191 0.30039 0.06191 0.32332 0 0.49759-0.2316t0.17427-0.6604q0-0.22701-0.04127-0.38982-0.03898-0.16281-0.11465-0.26599-0.07567-0.10548-0.18574-0.15364-0.11007-0.04815-0.24994-0.04815zm2.0175-1.3437v3.3777h-0.40816v-3.3777zm1.7057 1.0181q0.20867 0 0.38523 0.07109 0.17656 0.06879 0.30498 0.20179 0.12841 0.1307 0.1995 0.32561 0.07338 0.19262 0.07338 0.44027 0 0.09631-0.02064 0.12841t-0.07796 0.0321h-1.5455q0.0046 0.22013 0.05962 0.38294 0.05503 0.16281 0.15134 0.27287 0.09631 0.10777 0.22931 0.16281 0.133 0.05274 0.2981 0.05274 0.15364 0 0.2637-0.0344 0.11236-0.03669 0.19262-0.07796t0.133-0.07567q0.05503-0.03669 0.09401-0.03669 0.05045 0 0.07796 0.03898l0.11465 0.14905q-0.07567 0.09172-0.18115 0.16051-0.10548 0.0665-0.22701 0.11007-0.11924 0.04357-0.24765 0.06421-0.12841 0.02293-0.25453 0.02293-0.24077 0-0.44485-0.08026-0.20179-0.08255-0.35084-0.23848-0.14676-0.15822-0.22931-0.38982t-0.08255-0.53199q0-0.24306 0.07338-0.45402 0.07567-0.21096 0.21555-0.3646 0.13988-0.15593 0.34167-0.24306 0.20179-0.08943 0.45402-0.08943zm0.0092 0.30039q-0.2958 0-0.46549 0.17198-0.16969 0.16969-0.21096 0.47237h1.2635q0-0.14217-0.03898-0.25912-0.03898-0.11924-0.11465-0.20408-0.07567-0.08714-0.18574-0.133-0.10777-0.04816-0.24765-0.04816zm2.2445 2.0959q-0.27517 0-0.42422-0.15364-0.14676-0.15364-0.14676-0.44256v-1.4217h-0.27975q-0.03669 0-0.06191-0.02064-0.02522-0.02293-0.02522-0.06879v-0.16281l0.38065-0.04815 0.09401-0.71773q0.0046-0.0344 0.02981-0.05503 0.02522-0.02293 0.06421-0.02293h0.20638v0.80028h0.66499v0.2958h-0.66499v1.3942q0 0.14676 0.07109 0.21784 0.07108 0.07109 0.18344 0.07109 0.06421 0 0.11007-0.01605 0.04815-0.01834 0.08255-0.03898t0.05733-0.03669q0.02522-0.01834 0.04357-0.01834 0.0321 0 0.05733 0.03898l0.11924 0.19491q-0.10548 0.0986-0.25453 0.15593-0.14905 0.05503-0.30727 0.05503zm1.9923-2.3962q0.20867 0 0.38523 0.07109 0.17656 0.06879 0.30498 0.20179 0.12841 0.1307 0.1995 0.32561 0.07338 0.19262 0.07338 0.44027 0 0.09631-0.02064 0.12841t-0.07796 0.0321h-1.5455q0.0046 0.22013 0.05962 0.38294 0.05503 0.16281 0.15134 0.27287 0.09631 0.10777 0.22931 0.16281 0.133 0.05274 0.2981 0.05274 0.15363 0 0.2637-0.0344 0.11236-0.03669 0.19262-0.07796t0.133-0.07567q0.05503-0.03669 0.09401-0.03669 0.05045 0 0.07796 0.03898l0.11465 0.14905q-0.07567 0.09172-0.18115 0.16051-0.10548 0.0665-0.22701 0.11007-0.11924 0.04357-0.24765 0.06421-0.12841 0.02293-0.25453 0.02293-0.24077 0-0.44485-0.08026-0.20179-0.08255-0.35084-0.23848-0.14678-0.15822-0.22933-0.38982t-0.08255-0.53199q0-0.24306 0.07338-0.45402 0.07567-0.21096 0.21555-0.3646 0.13988-0.15593 0.34166-0.24306 0.20179-0.08943 0.45402-0.08943zm0.0092 0.30039q-0.2958 0-0.46549 0.17198-0.16969 0.16969-0.21096 0.47237h1.2635q0-0.14217-0.03898-0.25912-0.03898-0.11924-0.11465-0.20408-0.07567-0.08714-0.18574-0.133-0.10777-0.04816-0.24765-0.04816zm2.4918 2.0592v-2.3229h0.23389q0.0665 0 0.09172 0.02522t0.0344 0.08714l0.02752 0.3623q0.11924-0.24306 0.29351-0.37836 0.17656-0.13758 0.41275-0.13758 0.09631 0 0.17427 0.02293 0.07796 0.02064 0.14446 0.05962l-0.05274 0.30498q-0.01605 0.05733-0.07109 0.05733-0.0321 0-0.0986-0.02064-0.0665-0.02293-0.18574-0.02293-0.21325 0-0.35772 0.12382-0.14217 0.12382-0.23848 0.36001v1.479zm2.2675-2.3229v1.4813q0 0.2637 0.12153 0.40816t0.36689 0.14446q0.17886 0 0.33708-0.08484t0.29122-0.23618v-1.7129h0.40816v2.3229h-0.24306q-0.08714 0-0.11007-0.08484l-0.0321-0.24994q-0.15134 0.16739-0.33937 0.27058-0.18803 0.1009-0.4311 0.1009-0.19032 0-0.33708-0.06191-0.14446-0.06421-0.24306-0.17886t-0.14905-0.27746q-0.04815-0.16281-0.04815-0.36001v-1.4813zm2.2629 2.3229v-2.3229h0.24306q0.08714 0 0.11007 0.08484l0.0321 0.25224q0.15134-0.16739 0.33708-0.27058 0.18803-0.10319 0.43339-0.10319 0.19032 0 0.33479 0.06421 0.14676 0.06191 0.24306 0.17886 0.0986 0.11465 0.14905 0.27746t0.05045 0.36001v1.479h-0.40822v-1.479q0-0.2637-0.12153-0.40816-0.11924-0.14676-0.36689-0.14676-0.18115 0-0.33937 0.08714-0.15593 0.08714-0.28892 0.23618v1.7106zm3.32 0.03669q-0.27517 0-0.42422-0.15364-0.14676-0.15364-0.14676-0.44256v-1.4217h-0.27975q-0.03669 0-0.06191-0.02064-0.02522-0.02293-0.02522-0.06879v-0.16281l0.38065-0.04815 0.09401-0.71773q0.0046-0.0344 0.02981-0.05503 0.02522-0.02293 0.06421-0.02293h0.20638v0.80028h0.66499v0.2958h-0.66505v1.3942q0 0.14676 0.07108 0.21784 0.07108 0.07109 0.18344 0.07109 0.06421 0 0.11007-0.01605 0.04815-0.01834 0.08255-0.03898t0.05733-0.03669q0.02522-0.01834 0.04357-0.01834 0.0321 0 0.05733 0.03898l0.11924 0.19491q-0.10548 0.0986-0.25453 0.15593-0.14905 0.05503-0.30727 0.05503zm1.5268-2.3596v2.3229h-0.40822v-2.3229zm0.09172-0.72919q0 0.05962-0.02522 0.11236-0.02293 0.05045-0.06421 0.09172-0.03898 0.03898-0.09172 0.06191t-0.11236 0.02293-0.11236-0.02293q-0.05045-0.02293-0.09172-0.06191-0.03898-0.04127-0.06191-0.09172-0.02293-0.05274-0.02293-0.11236t0.02293-0.11236q0.02293-0.05503 0.06191-0.09401 0.04128-0.04127 0.09172-0.06421 0.05274-0.02293 0.11236-0.02293t0.11236 0.02293 0.09172 0.06421q0.04127 0.03898 0.06421 0.09401 0.02522 0.05274 0.02522 0.11236zm0.69445 3.0521v-2.3229h0.24306q0.08714 0 0.11007 0.08484l0.02981 0.23848q0.12841-0.15822 0.28663-0.25912 0.16051-0.1009 0.37148-0.1009 0.23618 0 0.38065 0.1307 0.14676 0.1307 0.21096 0.35313 0.04815-0.12612 0.12612-0.21784 0.08026-0.09172 0.17886-0.15134t0.20867-0.08714q0.11236-0.02752 0.22701-0.02752 0.18344 0 0.32561 0.05962 0.14446 0.05733 0.24306 0.16969 0.1009 0.11236 0.15364 0.27746 0.05274 0.16281 0.05274 0.37377v1.479h-0.40822v-1.479q0-0.27287-0.11924-0.41275-0.11924-0.14217-0.34625-0.14217-0.10089 0-0.19262 0.03669-0.08943 0.0344-0.15822 0.10319t-0.11007 0.17427q-0.03898 0.10319-0.03898 0.24077v1.479h-0.40816v-1.479q0-0.27975-0.11236-0.41734-0.11236-0.13758-0.32791-0.13758-0.15134 0-0.28205 0.08255-0.12841 0.08026-0.23618 0.22013v1.7313zm4.7509-2.3596q0.20867 0 0.38523 0.07109 0.17657 0.06879 0.30498 0.20179 0.12841 0.1307 0.19949 0.32561 0.0734 0.19262 0.0734 0.44027 0 0.09631-0.0206 0.12841t-0.078 0.0321h-1.5456q0.0046 0.22013 0.05962 0.38294 0.05503 0.16281 0.15134 0.27287 0.0963 0.10777 0.22931 0.16281 0.13299 0.05274 0.29809 0.05274 0.15364 0 0.26371-0.0344 0.11235-0.03669 0.19261-0.07796 0.0803-0.04127 0.133-0.07567 0.055-0.03669 0.094-0.03669 0.0504 0 0.078 0.03898l0.11465 0.14905q-0.0757 0.09172-0.18115 0.16051-0.10548 0.0665-0.22701 0.11007-0.11924 0.04357-0.24765 0.06421-0.12841 0.02293-0.25453 0.02293-0.24077 0-0.44485-0.08026-0.20179-0.08255-0.35084-0.23848-0.14676-0.15822-0.22931-0.38982t-0.08255-0.53199q0-0.24306 0.07338-0.45402 0.07567-0.21096 0.21555-0.3646 0.13988-0.15593 0.34166-0.24306 0.20179-0.08943 0.45403-0.08943zm9e-3 0.30039q-0.2958 0-0.46549 0.17198-0.16969 0.16969-0.21096 0.47237h1.2635q0-0.14217-0.039-0.25912-0.039-0.11924-0.11465-0.20408-0.0757-0.08714-0.18574-0.133-0.10777-0.04816-0.24765-0.04816zm3.4114-0.30039q0.20867 0 0.38524 0.07109 0.17656 0.06879 0.30497 0.20179 0.12841 0.1307 0.1995 0.32561 0.0734 0.19262 0.0734 0.44027 0 0.09631-0.0206 0.12841t-0.078 0.0321h-1.5455q5e-3 0.22013 0.0596 0.38294 0.055 0.16281 0.15134 0.27287 0.0963 0.10777 0.2293 0.16281 0.133 0.05274 0.2981 0.05274 0.15363 0 0.2637-0.0344 0.11236-0.03669 0.19262-0.07796 0.0802-0.04127 0.133-0.07567 0.055-0.03669 0.094-0.03669 0.0504 0 0.078 0.03898l0.11466 0.14905q-0.0757 0.09172-0.18115 0.16051-0.10548 0.0665-0.22702 0.11007-0.11924 0.04357-0.24765 0.06421-0.12841 0.02293-0.25453 0.02293-0.24077 0-0.44485-0.08026-0.20179-0.08255-0.35084-0.23848-0.14675-0.15822-0.2293-0.38982-0.0825-0.2316-0.0825-0.53199 0-0.24306 0.0734-0.45402 0.0757-0.21096 0.21554-0.3646 0.13988-0.15593 0.34167-0.24306 0.20179-0.08943 0.45402-0.08943zm9e-3 0.30039q-0.29581 0-0.46549 0.17198-0.16969 0.16969-0.21097 0.47237h1.2635q0-0.14217-0.039-0.25912-0.039-0.11924-0.11466-0.20408-0.0757-0.08714-0.18573-0.133-0.10778-0.04816-0.24765-0.04816zm1.5406 2.0592v-2.3229h0.24306q0.0871 0 0.11007 0.08484l0.0321 0.25224q0.15134-0.16739 0.33708-0.27058 0.18803-0.10319 0.43339-0.10319 0.19032 0 0.33478 0.06421 0.14676 0.06191 0.24307 0.17886 0.0986 0.11465 0.14905 0.27746 0.0504 0.16281 0.0504 0.36001v1.479h-0.40816v-1.479q0-0.2637-0.12153-0.40816-0.11924-0.14676-0.36689-0.14676-0.18115 0-0.33937 0.08714-0.15593 0.08714-0.28893 0.23618v1.7106zm2.2491-2.3229h0.33478q0.0482 0 0.0803 0.02522t0.0459 0.05962l0.58932 1.4951q0.0321 0.08255 0.0504 0.1651t0.0344 0.16281q0.0183-0.08026 0.039-0.16281 0.0206-0.08255 0.0527-0.1651l0.5962-1.4951q0.0138-0.03669 0.0436-0.05962 0.0321-0.02522 0.078-0.02522h0.31873l-0.94703 2.3229h-0.36918zm3.1618 0v2.3229h-0.40816v-2.3229zm0.0917-0.72919q0 0.05962-0.0252 0.11236-0.0229 0.05045-0.0642 0.09172-0.039 0.03898-0.0917 0.06191t-0.11236 0.02293q-0.0596 0-0.11236-0.02293-0.0504-0.02293-0.0917-0.06191-0.039-0.04127-0.0619-0.09172-0.0229-0.05274-0.0229-0.11236t0.0229-0.11236q0.0229-0.05503 0.0619-0.09401 0.0413-0.04127 0.0917-0.06421 0.0527-0.02293 0.11236-0.02293 0.0596 0 0.11236 0.02293 0.0527 0.02293 0.0917 0.06421 0.0413 0.03898 0.0642 0.09401 0.0252 0.05274 0.0252 0.11236zm0.69444 3.0521v-2.3229h0.23389q0.0665 0 0.0917 0.02522t0.0344 0.08714l0.0275 0.3623q0.11924-0.24306 0.29351-0.37836 0.17656-0.13758 0.41275-0.13758 0.0963 0 0.17427 0.02293 0.078 0.02064 0.14446 0.05962l-0.0527 0.30498q-0.016 0.05733-0.0711 0.05733-0.0321 0-0.0986-0.02064-0.0665-0.02293-0.18574-0.02293-0.21326 0-0.35772 0.12382-0.14217 0.12382-0.23848 0.36001v1.479zm2.8545-2.3596q0.25453 0 0.45861 0.08484 0.20637 0.08484 0.34854 0.24077 0.14447 0.15593 0.22014 0.37835 0.078 0.22013 0.078 0.49301 0 0.27517-0.078 0.4953-0.0757 0.22013-0.22014 0.37606-0.14217 0.15593-0.34854 0.24077-0.20408 0.08255-0.45861 0.08255t-0.46091-0.08255q-0.20408-0.08484-0.34854-0.24077t-0.22243-0.37606q-0.078-0.22013-0.078-0.4953 0-0.27287 0.078-0.49301 0.078-0.22243 0.22243-0.37835 0.14446-0.15593 0.34854-0.24077 0.20638-0.08484 0.46091-0.08484zm0 2.0729q0.34396 0 0.51364-0.2293 0.16969-0.2316 0.16969-0.64435 0-0.41504-0.16969-0.64664-0.16968-0.2316-0.51364-0.2316-0.17427 0-0.30269 0.05962-0.12841 0.05962-0.21554 0.17198-0.0848 0.11236-0.12841 0.27746-0.0413 0.16281-0.0413 0.36918t0.0413 0.36918q0.0436 0.16281 0.12841 0.27517 0.0871 0.11007 0.21554 0.16969 0.12842 0.05962 0.30269 0.05962zm1.6759 0.28663v-2.3229h0.24306q0.0871 0 0.11007 0.08484l0.0321 0.25224q0.15134-0.16739 0.33708-0.27058 0.18803-0.10319 0.43339-0.10319 0.19032 0 0.33479 0.06421 0.14675 0.06191 0.24306 0.17886 0.0986 0.11465 0.14905 0.27746 0.0504 0.16281 0.0504 0.36001v1.479h-0.40816v-1.479q0-0.2637-0.12153-0.40816-0.11924-0.14676-0.36689-0.14676-0.18115 0-0.33937 0.08714-0.15593 0.08714-0.28893 0.23618v1.7106zm2.616 0v-2.3229h0.24306q0.0871 0 0.11007 0.08484l0.0298 0.23848q0.12841-0.15822 0.28663-0.25912 0.16052-0.1009 0.37148-0.1009 0.23618 0 0.38064 0.1307 0.14676 0.1307 0.21096 0.35313 0.0482-0.12612 0.12612-0.21784 0.0803-0.09172 0.17886-0.15134 0.0986-0.05962 0.20867-0.08714 0.11236-0.02752 0.22701-0.02752 0.18345 0 0.32562 0.05962 0.14446 0.05733 0.24306 0.16969 0.10089 0.11236 0.15363 0.27746 0.0527 0.16281 0.0527 0.37377v1.479h-0.40816v-1.479q0-0.27287-0.11924-0.41275-0.11924-0.14217-0.34625-0.14217-0.10089 0-0.19262 0.03669-0.0894 0.0344-0.15822 0.10319-0.0688 0.06879-0.11006 0.17427-0.039 0.10319-0.039 0.24077v1.479h-0.40816v-1.479q0-0.27975-0.11236-0.41734-0.11236-0.13758-0.32791-0.13758-0.15134 0-0.28204 0.08255-0.12841 0.08026-0.23619 0.22013v1.7313zm4.7509-2.3596q0.20866 0 0.38523 0.07109 0.17656 0.06879 0.30498 0.20179 0.12841 0.1307 0.19949 0.32561 0.0734 0.19262 0.0734 0.44027 0 0.09631-0.0206 0.12841t-0.078 0.0321h-1.5455q5e-3 0.22013 0.0596 0.38294 0.055 0.16281 0.15134 0.27287 0.0963 0.10777 0.2293 0.16281 0.133 0.05274 0.2981 0.05274 0.15364 0 0.2637-0.0344 0.11236-0.03669 0.19262-0.07796 0.0803-0.04127 0.133-0.07567 0.055-0.03669 0.094-0.03669 0.0504 0 0.078 0.03898l0.11465 0.14905q-0.0757 0.09172-0.18115 0.16051-0.10548 0.0665-0.22701 0.11007-0.11924 0.04357-0.24765 0.06421-0.12842 0.02293-0.25453 0.02293-0.24077 0-0.44486-0.08026-0.20179-0.08255-0.35083-0.23848-0.14676-0.15822-0.22931-0.38982-0.0825-0.2316-0.0825-0.53199 0-0.24306 0.0734-0.45402 0.0757-0.21096 0.21555-0.3646 0.13987-0.15593 0.34166-0.24306 0.20179-0.08943 0.45403-0.08943zm9e-3 0.30039q-0.29581 0-0.46549 0.17198-0.16969 0.16969-0.21096 0.47237h1.2635q0-0.14217-0.039-0.25912-0.039-0.11924-0.11465-0.20408-0.0757-0.08714-0.18574-0.133-0.10778-0.04816-0.24765-0.04816zm1.5406 2.0592v-2.3229h0.24306q0.0871 0 0.11007 0.08484l0.0321 0.25224q0.15134-0.16739 0.33708-0.27058 0.18803-0.10319 0.43339-0.10319 0.19032 0 0.33479 0.06421 0.14675 0.06191 0.24306 0.17886 0.0986 0.11465 0.14905 0.27746 0.0504 0.16281 0.0504 0.36001v1.479h-0.40816v-1.479q0-0.2637-0.12153-0.40816-0.11924-0.14676-0.36689-0.14676-0.18115 0-0.33937 0.08714-0.15593 0.08714-0.28893 0.23618v1.7106zm3.32 0.03669q-0.27516 0-0.42421-0.15364-0.14676-0.15364-0.14676-0.44256v-1.4217h-0.27975q-0.0367 0-0.0619-0.02064-0.0252-0.02293-0.0252-0.06879v-0.16281l0.38065-0.04815 0.094-0.71773q5e-3 -0.0344 0.0298-0.05503 0.0252-0.02293 0.0642-0.02293h0.20638v0.80028h0.66498v0.2958h-0.66498v1.3942q0 0.14676 0.0711 0.21784 0.0711 0.07109 0.18345 0.07109 0.0642 0 0.11006-0.01605 0.0482-0.01834 0.0826-0.03898t0.0573-0.03669q0.0252-0.01834 0.0436-0.01834 0.0321 0 0.0573 0.03898l0.11924 0.19491q-0.10548 0.0986-0.25453 0.15593-0.14905 0.05503-0.30727 0.05503zm2.1158-0.03669v-1.9743l-0.25682-0.02981q-0.0481-0.01147-0.0803-0.0344-0.0298-0.02522-0.0298-0.07108v-0.16739h0.36689v-0.22472q0-0.1995 0.055-0.35313 0.0573-0.15593 0.16051-0.26141 0.10548-0.10777 0.25224-0.16281 0.14675-0.05503 0.3302-0.05503 0.15592 0 0.28892 0.04586l-9e-3 0.20408q-2e-3 0.04586-0.039 0.05503-0.0367 0.0092-0.10319 0.0092h-0.0711q-0.10548 0-0.19261 0.02752-0.0848 0.02752-0.14676 0.08943-0.0619 0.06191-0.0963 0.16281-0.0321 0.1009-0.0321 0.24994v0.21325h0.67187v0.2958h-0.65811v1.9812zm2.4601-2.3596q0.25453 0 0.45861 0.08484 0.20637 0.08484 0.34854 0.24077 0.14446 0.15593 0.22014 0.37835 0.078 0.22013 0.078 0.49301 0 0.27517-0.078 0.4953-0.0757 0.22013-0.22014 0.37606-0.14217 0.15593-0.34854 0.24077-0.20408 0.08255-0.45861 0.08255t-0.46091-0.08255q-0.20408-0.08484-0.34854-0.24077t-0.22243-0.37606q-0.078-0.22013-0.078-0.4953 0-0.27287 0.078-0.49301 0.078-0.22243 0.22243-0.37835 0.14446-0.15593 0.34854-0.24077 0.20638-0.08484 0.46091-0.08484zm0 2.0729q0.34396 0 0.51364-0.2293 0.16969-0.2316 0.16969-0.64435 0-0.41504-0.16969-0.64664-0.16968-0.2316-0.51364-0.2316-0.17428 0-0.30269 0.05962t-0.21554 0.17198q-0.0848 0.11236-0.12841 0.27746-0.0413 0.16281-0.0413 0.36918t0.0413 0.36918q0.0436 0.16281 0.12841 0.27517 0.0871 0.11007 0.21554 0.16969 0.12841 0.05962 0.30269 0.05962zm1.6759 0.28663v-2.3229h0.2339q0.0665 0 0.0917 0.02522t0.0344 0.08714l0.0275 0.3623q0.11924-0.24306 0.29351-0.37836 0.17657-0.13758 0.41275-0.13758 0.0963 0 0.17427 0.02293 0.078 0.02064 0.14447 0.05962l-0.0527 0.30498q-0.016 0.05733-0.0711 0.05733-0.0321 0-0.0986-0.02064-0.0665-0.02293-0.18574-0.02293-0.21325 0-0.35771 0.12382-0.14217 0.12382-0.23848 0.36001v1.479zm4.3951-0.32332q0.133 0 0.24306-0.01147 0.11236-0.01376 0.21096-0.03898t0.18574-0.05962q0.0871-0.03669 0.17427-0.08255v-0.72461h-0.50906q-0.0436 0-0.0711-0.02522-0.0252-0.02522-0.0252-0.06191v-0.25224h1.0089v1.2612q-0.12382 0.08943-0.25911 0.15593-0.133 0.0665-0.28664 0.11236-0.15134 0.04357-0.32561 0.0642-0.17427 0.02293-0.37835 0.02293-0.35772 0-0.65582-0.12153-0.2981-0.12382-0.51364-0.34396-0.21555-0.22243-0.33708-0.53199-0.11924-0.30956-0.11924-0.68104 0-0.37606 0.11695-0.68562 0.11923-0.30956 0.33707-0.5297 0.22014-0.22243 0.5297-0.34396 0.31186-0.12153 0.69709-0.12153 0.19491 0 0.3623 0.02981 0.16739 0.02752 0.30956 0.08255 0.14447 0.05274 0.266 0.1307 0.12153 0.07567 0.22701 0.17198l-0.12612 0.20179q-0.039 0.06191-0.10089 0.06191-0.0367 0-0.0803-0.02522-0.0573-0.0321-0.12841-0.07796-0.0711-0.04586-0.17427-0.08714-0.1009-0.04357-0.24077-0.07338-0.13759-0.02981-0.32791-0.02981-0.27746 0-0.50218 0.09172-0.22472 0.08943-0.38294 0.25912-0.15822 0.16739-0.24306 0.40816-0.0848 0.23848-0.0848 0.53657 0 0.31186 0.0871 0.55721 0.0894 0.24306 0.24994 0.41275 0.16052 0.16969 0.38065 0.25912t0.48613 0.08943zm4.2831-0.35542q0.0367 0 0.0665 0.02981l0.17427 0.19032q-0.20179 0.23389-0.49071 0.3646-0.28663 0.1307-0.6925 0.1307-0.35543 0-0.64435-0.12153-0.28893-0.12382-0.49301-0.34396-0.20408-0.22243-0.31644-0.53199t-0.11236-0.68104q0-0.37147 0.11924-0.68104 0.12153-0.30956 0.33937-0.53199t0.52052-0.34396q0.30498-0.12382 0.67187-0.12382 0.3623 0 0.62371 0.11236 0.2637 0.11236 0.46778 0.30498l-0.14446 0.20408q-0.0161 0.02293-0.0367 0.03898-0.0206 0.01376-0.0596 0.01376-0.0298 0-0.0642-0.02064-0.0321-0.02293-0.078-0.05503t-0.10777-0.06879q-0.0619-0.03669-0.14676-0.06879-0.0848-0.0321-0.1972-0.05274-0.11236-0.02293-0.25911-0.02293-0.26371 0-0.48384 0.09172-0.21784 0.08943-0.37606 0.25682t-0.24765 0.40816q-0.0871 0.24077-0.0871 0.53887 0 0.30727 0.0871 0.54804 0.0894 0.24077 0.24077 0.40816 0.15364 0.1651 0.3623 0.25224 0.20867 0.08714 0.44944 0.08714 0.14676 0 0.2637-0.01605 0.11695-0.01834 0.21555-0.05503 0.1009-0.03669 0.18574-0.09172 0.0871-0.05733 0.17427-0.13529 0.039-0.0344 0.0757-0.0344zm3.2076 0q0.0367 0 0.0665 0.02981l0.17427 0.19032q-0.20179 0.23389-0.49071 0.3646-0.28664 0.1307-0.69251 0.1307-0.35542 0-0.64435-0.12153-0.28892-0.12382-0.493-0.34396-0.20408-0.22243-0.31644-0.53199t-0.11236-0.68104q0-0.37147 0.11923-0.68104 0.12154-0.30956 0.33938-0.53199t0.52052-0.34396q0.30498-0.12382 0.67187-0.12382 0.3623 0 0.62371 0.11236 0.2637 0.11236 0.46778 0.30498l-0.14446 0.20408q-0.016 0.02293-0.0367 0.03898-0.0206 0.01376-0.0596 0.01376-0.0298 0-0.0642-0.02064-0.0321-0.02293-0.078-0.05503t-0.10777-0.06879q-0.0619-0.03669-0.14676-0.06879-0.0848-0.0321-0.1972-0.05274-0.11236-0.02293-0.25912-0.02293-0.2637 0-0.48383 0.09172-0.21784 0.08943-0.37606 0.25682t-0.24765 0.40816q-0.0871 0.24077-0.0871 0.53887 0 0.30727 0.0871 0.54804 0.0894 0.24077 0.24077 0.40816 0.15363 0.1651 0.3623 0.25224t0.44944 0.08714q0.14675 0 0.2637-0.01605 0.11695-0.01834 0.21555-0.05503 0.10089-0.03669 0.18574-0.09172 0.0871-0.05733 0.17427-0.13529 0.039-0.0344 0.0757-0.0344zm2.9573-2.6439q0.18116 0 0.3302 0.05962 0.14905 0.05733 0.25683 0.15363 0.11006 0.09631 0.17198 0.22472 0.0642 0.12612 0.0734 0.2637l-0.25453 0.05045q-0.0115 0.0023-0.0206 0.0023-0.0298 0-0.0573-0.01605-0.0252-0.01605-0.0367-0.05733-0.0161-0.05962-0.0527-0.12382-0.0344-0.06421-0.0917-0.11695-0.055-0.05274-0.13529-0.08714-0.078-0.0344-0.18345-0.0344-0.11465 0-0.20637 0.03669-0.0917 0.03669-0.15822 0.10319-0.0642 0.06421-0.1009 0.15364-0.0344 0.08714-0.0344 0.19032 0 0.08026 0.0183 0.15364 0.0206 0.07338 0.0596 0.14905 0.039 0.07338 0.1009 0.15363 0.0619 0.07796 0.14905 0.1651l0.94473 0.96079q0.0871-0.15363 0.13759-0.32103 0.0527-0.16969 0.0711-0.33937 5e-3 -0.04357 0.0275-0.06879 0.0229-0.02522 0.0642-0.02522h0.25224q-5e-3 0.2637-0.0848 0.51823-0.0803 0.25453-0.2316 0.47696l0.68792 0.69709h-0.39441q-0.0665 0-0.10777-0.01605-0.0413-0.01605-0.0917-0.0665l-0.3302-0.33249q-0.21554 0.20867-0.49759 0.3302-0.27975 0.12153-0.61683 0.12153-0.18344 0-0.36001-0.06191t-0.31644-0.17886q-0.13758-0.11924-0.22243-0.28892-0.0848-0.16969-0.0848-0.38294 0-0.16051 0.0527-0.30268 0.055-0.14446 0.14905-0.266 0.0963-0.12153 0.22701-0.21784 0.1307-0.09631 0.28663-0.1651-0.13987-0.17656-0.20637-0.34396t-0.0665-0.34625q0-0.16739 0.0596-0.31415 0.0619-0.14676 0.17656-0.25453 0.11466-0.11007 0.27746-0.17198 0.1651-0.06421 0.36918-0.06421zm-0.91034 2.4146q0 0.14905 0.055 0.2637 0.055 0.11236 0.14446 0.19032 0.0894 0.07796 0.20408 0.11924 0.11465 0.03898 0.23389 0.03898 0.25682 0 0.46091-0.09401 0.20408-0.09402 0.36-0.24994l-0.96996-0.97914q-0.24306 0.1307-0.36689 0.31415-0.12153 0.18115-0.12153 0.3967zm4.4822 0.53428h1.4217v0.37377h-1.8665v-3.2859h0.44485zm2.4234 0h1.4217v0.37377h-1.8665v-3.2859h0.44485zm1.1806-2.9122h0.35543q0.0596 0 0.0963 0.02981t0.055 0.07567l0.92868 2.3183q0.0321 0.07796 0.0573 0.16969 0.0275 0.09172 0.0527 0.19032 0.0206-0.0986 0.0436-0.19032 0.0252-0.09172 0.0573-0.16969l0.9241-2.3183q0.0161-0.03898 0.055-0.07109 0.039-0.0344 0.0963-0.0344h0.35771l-1.3391 3.2859h-0.40128zm5.182 2.0981q0.0321 0.05503 0.055 0.11695 0.0252 0.05962 0.0481 0.12153 0.0229-0.06421 0.0481-0.12153 0.0252-0.05962 0.0573-0.11924l1.1121-2.0202q0.0298-0.05274 0.0619-0.06421t0.0917-0.01147h0.3279v3.2859h-0.38982v-2.4146q0-0.04815 2e-3 -0.10319 2e-3 -0.05503 7e-3 -0.11236l-1.1259 2.0546q-0.0573 0.10319-0.16052 0.10319h-0.0642q-0.10319 0-0.16052-0.10319l-1.1511-2.0615q7e-3 0.05962 9e-3 0.11694 5e-3 0.05733 5e-3 0.10548v2.4146h-0.38982v-3.2859h0.32791q0.0596 0 0.0917 0.01147t0.0619 0.06421l1.1351 2.0225z"/>
    <path d="m61.466 43.337v-1.9743l-0.25682-0.02981q-0.04815-0.01147-0.08026-0.0344-0.02981-0.02522-0.02981-0.07109v-0.16738h0.36689v-0.22472q0-0.1995 0.05503-0.35313 0.05733-0.15593 0.16051-0.26141 0.10548-0.10777 0.25224-0.16281 0.14676-0.05503 0.3302-0.05503 0.15593 0 0.28892 0.04586l-0.0092 0.20408q-0.0023 0.04586-0.03898 0.05503-0.03669 0.0092-0.10319 0.0092h-0.07108q-0.10548 0-0.19262 0.02752-0.08484 0.02752-0.14676 0.08943-0.06191 0.06191-0.09631 0.16281-0.0321 0.10089-0.0321 0.24994v0.21325h0.67186v0.2958h-0.65811v1.9812zm2.4601-2.3596q0.25453 0 0.45861 0.08484 0.20638 0.08484 0.34854 0.24077 0.14446 0.15593 0.22013 0.37835 0.07796 0.22013 0.07796 0.49301 0 0.27517-0.07796 0.4953-0.07567 0.22013-0.22013 0.37606-0.14217 0.15593-0.34854 0.24077-0.20408 0.08255-0.45861 0.08255t-0.4609-0.08255q-0.20408-0.08484-0.34854-0.24077t-0.22243-0.37606q-0.07796-0.22013-0.07796-0.4953 0-0.27287 0.07796-0.49301 0.07796-0.22243 0.22243-0.37835 0.14446-0.15593 0.34854-0.24077 0.20638-0.08484 0.4609-0.08484zm0 2.0729q0.34396 0 0.51364-0.22931 0.16969-0.2316 0.16969-0.64435 0-0.41504-0.16969-0.64664t-0.51364-0.2316q-0.17427 0-0.30268 0.05962t-0.21555 0.17198q-0.08484 0.11236-0.12841 0.27746-0.04127 0.16281-0.04127 0.36918t0.04127 0.36918q0.04357 0.16281 0.12841 0.27517 0.08714 0.11007 0.21555 0.16969t0.30268 0.05962zm1.6759 0.28663v-2.3229h0.23389q0.0665 0 0.09172 0.02522t0.0344 0.08714l0.02752 0.3623q0.11924-0.24306 0.29351-0.37835 0.17656-0.13758 0.41275-0.13758 0.09631 0 0.17427 0.02293 0.07796 0.02064 0.14446 0.05962l-0.05274 0.30498q-0.01605 0.05733-0.07108 0.05733-0.0321 0-0.0986-0.02064-0.0665-0.02293-0.18574-0.02293-0.21325 0-0.35772 0.12382-0.14217 0.12382-0.23848 0.36001v1.479zm3.9525-3.3226q0.20867 0 0.38523 0.05962t0.30268 0.16969q0.12841 0.11007 0.1995 0.26599 0.07109 0.15593 0.07109 0.34625 0 0.15593-0.04127 0.27975-0.03898 0.12153-0.11465 0.21555-0.07338 0.09172-0.17886 0.15593t-0.23618 0.10319q0.32103 0.08484 0.48154 0.28434 0.16281 0.1995 0.16281 0.49989 0 0.22701-0.08714 0.40816-0.08484 0.18115-0.23389 0.30956-0.14905 0.12612-0.34854 0.19491-0.1972 0.0665-0.42422 0.0665-0.26141 0-0.44714-0.06421-0.18574-0.0665-0.31415-0.18115t-0.21096-0.27058q-0.08255-0.15822-0.13988-0.34166l0.17427-0.07338q0.04815-0.02064 0.09631-0.02064 0.04586 0 0.08026 0.02064 0.03669 0.01835 0.05503 0.05962 0.0046 0.0092 0.0092 0.02064 0.0046 0.0092 0.0092 0.02064 0.0321 0.0665 0.07796 0.15134 0.04586 0.08255 0.12382 0.15593t0.19262 0.12382q0.11695 0.05045 0.28892 0.05045t0.30039-0.05503q0.1307-0.05733 0.21555-0.14676 0.08714-0.08943 0.1307-0.1995 0.04357-0.11007 0.04357-0.21784 0-0.133-0.03669-0.24306-0.0344-0.11007-0.12841-0.19032-0.09172-0.08026-0.25682-0.12612-0.16281-0.04586-0.41963-0.04586v-0.2958q0.20867-0.0023 0.35542-0.04586 0.14905-0.04357 0.24306-0.11924t0.13529-0.18115q0.04357-0.10548 0.04357-0.23389 0-0.14217-0.04586-0.24765-0.04357-0.10548-0.12153-0.17427t-0.18574-0.10319q-0.10548-0.0344-0.22931-0.0344t-0.2293 0.03669q-0.10548 0.03669-0.18803 0.10319-0.08026 0.0642-0.13529 0.15593-0.05503 0.08943-0.08255 0.19491-0.01834 0.0665-0.05503 0.09631t-0.09402 0.02981q-0.01147 0-0.02522 0-0.01146-0.0023-0.02752-0.0046l-0.21325-0.03669q0.0321-0.22472 0.12382-0.3967 0.09172-0.17427 0.2316-0.29122 0.14217-0.11695 0.32332-0.17656 0.18344-0.06191 0.39441-0.06191zm2.6825 0q0.20867 0 0.38982 0.06191t0.31186 0.18115q0.133 0.11695 0.20867 0.28663 0.07567 0.16969 0.07567 0.38523 0 0.18344-0.05503 0.33937t-0.14905 0.30039q-0.09401 0.14217-0.21784 0.27746-0.12153 0.133-0.25912 0.27287l-0.86448 0.88512q0.09172-0.02522 0.18574-0.03898 0.09401-0.01605 0.18115-0.01605h1.1007q0.0665 0 0.10548 0.03898t0.03898 0.1009v0.24765h-2.1922v-0.13988q0-0.04357 0.01605-0.08943 0.01834-0.04586 0.05733-0.08484l1.0525-1.0571q0.1307-0.133 0.23848-0.25453 0.10777-0.12382 0.18344-0.24765 0.07796-0.12382 0.11924-0.24994 0.04127-0.12841 0.04127-0.27287t-0.04586-0.25224q-0.04586-0.11007-0.12612-0.18115t-0.18803-0.10548q-0.10777-0.03669-0.2316-0.03669t-0.22931 0.03669q-0.10548 0.03669-0.18803 0.10319-0.08026 0.0642-0.13758 0.15364-0.05503 0.08943-0.07796 0.1972-0.01834 0.0665-0.05503 0.09631t-0.09631 0.02981q-0.01147 0-0.02522 0-0.01147-0.0023-0.02752-0.0046l-0.21326-0.03669q0.0321-0.22472 0.12382-0.3967 0.09172-0.17427 0.2316-0.29122 0.14217-0.11695 0.32332-0.17656 0.18344-0.06191 0.3944-0.06191zm1.5773 1.7748h1.1328v0.34625h-1.1328zm1.7768 1.5478v-3.3777h0.41046v1.3896q0.14446-0.16739 0.3302-0.26829 0.18803-0.10319 0.4288-0.10319 0.20179 0 0.3646 0.07567t0.27746 0.22701q0.11465 0.14905 0.17657 0.37148 0.06191 0.22013 0.06191 0.50906 0 0.25682-0.06879 0.47925-0.06879 0.22013-0.1995 0.38294-0.12841 0.16051-0.31644 0.25453-0.18574 0.09172-0.41963 0.09172-0.22472 0-0.38294-0.08714-0.15593-0.08714-0.27287-0.24306l-0.02064 0.21096q-0.01834 0.08714-0.10548 0.08714zm1.0365-2.0339q-0.1995 0-0.35084 0.09172-0.14905 0.09172-0.27517 0.25912v1.1236q0.11007 0.15134 0.24306 0.21326 0.13529 0.06191 0.30039 0.06191 0.32561 0 0.49989-0.2316 0.17427-0.2316 0.17427-0.6604 0-0.22701-0.04127-0.38982-0.03898-0.16281-0.11465-0.26599-0.07567-0.10548-0.18574-0.15364-0.11007-0.04815-0.24994-0.04815zm2.0336-0.28892v2.3229h-0.40816v-2.3229zm0.09172-0.72919q0 0.05962-0.02522 0.11236-0.02293 0.05045-0.06421 0.09172-0.03898 0.03898-0.09172 0.06191t-0.11236 0.02293-0.11236-0.02293q-0.05045-0.02293-0.09172-0.06191-0.03898-0.04127-0.06191-0.09172-0.02293-0.05274-0.02293-0.11236t0.02293-0.11236q0.02293-0.05503 0.06191-0.09401 0.04127-0.04127 0.09172-0.06421 0.05274-0.02293 0.11236-0.02293t0.11236 0.02293 0.09172 0.06421q0.04127 0.03898 0.06421 0.09401 0.02522 0.05274 0.02522 0.11236zm1.3984 3.0887q-0.27517 0-0.42422-0.15364-0.14676-0.15364-0.14676-0.44256v-1.4217h-0.27975q-0.03669 0-0.06191-0.02064-0.02522-0.02293-0.02522-0.06879v-0.16281l0.38065-0.04815 0.09402-0.71773q0.0046-0.0344 0.02981-0.05503 0.02522-0.02293 0.06421-0.02293h0.20638v0.80028h0.66499v0.2958h-0.66499v1.3942q0 0.14676 0.07108 0.21784 0.07108 0.07109 0.18344 0.07109 0.06421 0 0.11007-0.01605 0.04815-0.01834 0.08255-0.03898t0.05733-0.03669q0.02522-0.01834 0.04357-0.01834 0.0321 0 0.05733 0.03898l0.11924 0.19491q-0.10548 0.0986-0.25453 0.15593-0.14905 0.05503-0.30727 0.05503zm2.352-1.479q0 0.49071 0.12612 0.95391 0.12612 0.4609 0.3646 0.88053 0.01376 0.02522 0.01834 0.04357 0.0046 0.01835 0.0046 0.03669 0 0.0321-0.01605 0.05274t-0.04127 0.03669l-0.18115 0.11007q-0.17198-0.2637-0.29351-0.52282-0.11924-0.25912-0.19491-0.52052-0.07338-0.26141-0.10777-0.52511-0.0344-0.26599-0.0344-0.54575 0-0.27746 0.0344-0.54345t0.10777-0.52511q0.07567-0.26141 0.19491-0.52052 0.12153-0.25912 0.29351-0.52511l0.18115 0.11236q0.02522 0.01605 0.04127 0.03669t0.01605 0.05274q0 0.0344-0.02293 0.07796-0.24077 0.41734-0.36689 0.88053-0.12382 0.4632-0.12382 0.95391zm1.6575 0.25224-0.78193-1.1328h0.39211q0.05045 0 0.07338 0.01605t0.04127 0.04586l0.56868 0.87136q0.02064-0.06421 0.05962-0.12841l0.49989-0.73378q0.02293-0.0321 0.04586-0.05045 0.02293-0.02064 0.05733-0.02064h0.37606l-0.78193 1.1098 0.81403 1.213h-0.39211q-0.05045 0-0.08026-0.02522-0.02752-0.02752-0.04586-0.05962l-0.58473-0.91034q-0.01605 0.0665-0.04815 0.11924l-0.54116 0.7911q-0.02293 0.0321-0.05045 0.05962-0.02522 0.02522-0.07109 0.02522h-0.3646zm2.827 1.2268q-0.24536 0-0.44944-0.06421-0.20408-0.0665-0.35084-0.18803t-0.22701-0.29351q-0.08026-0.17427-0.08026-0.38982 0-0.31644 0.1651-0.52052 0.1651-0.20638 0.47237-0.29351-0.25912-0.09631-0.39211-0.28663-0.1307-0.19262-0.1307-0.45861 0-0.18115 0.07108-0.33937t0.20179-0.27517q0.1307-0.11695 0.31186-0.18344 0.18344-0.0665 0.40816-0.0665 0.22243 0 0.40587 0.0665t0.31415 0.18344q0.1307 0.11695 0.20179 0.27517 0.07108 0.15822 0.07108 0.33937 0 0.26599-0.133 0.45861-0.133 0.19032-0.38982 0.28663 0.30727 0.08714 0.47237 0.29351 0.1651 0.20408 0.1651 0.52052 0 0.21555-0.08255 0.38982-0.08026 0.17198-0.22701 0.29351-0.14446 0.12153-0.34854 0.18803-0.20408 0.06421-0.44944 0.06421zm0-0.32561q0.16051 0 0.28663-0.04357 0.12841-0.04586 0.21555-0.12612 0.08943-0.08255 0.13529-0.19491 0.04815-0.11465 0.04815-0.25224 0-0.16969-0.05733-0.28892-0.05503-0.12153-0.15134-0.1972-0.09401-0.07567-0.21784-0.11007-0.12382-0.03669-0.25912-0.03669t-0.25912 0.03669q-0.12382 0.0344-0.22013 0.11007-0.09401 0.07567-0.15134 0.1972-0.05503 0.11924-0.05503 0.28892 0 0.13758 0.04586 0.25224 0.04815 0.11236 0.13529 0.19491 0.08943 0.08026 0.21555 0.12612 0.12841 0.04357 0.28892 0.04357zm0-1.5776q0.16051 0 0.27287-0.04815 0.11465-0.05045 0.18574-0.1307 0.07108-0.08255 0.10319-0.18803 0.0321-0.10548 0.0321-0.21784 0-0.11465-0.03898-0.21555-0.03669-0.1009-0.11236-0.17656-0.07338-0.07567-0.18574-0.11924-0.11007-0.04357-0.25682-0.04357-0.14676 0-0.25912 0.04357-0.11007 0.04357-0.18574 0.11924-0.07338 0.07567-0.11236 0.17656-0.03669 0.10089-0.03669 0.21555 0 0.11236 0.0321 0.21784t0.10319 0.18803q0.07108 0.08026 0.18344 0.1307 0.11465 0.04815 0.27517 0.04815zm2.8889-0.14676q0.1972 0 0.37377 0.0665 0.17656 0.06421 0.30956 0.19032 0.133 0.12382 0.21096 0.30727 0.07796 0.18115 0.07796 0.41504 0 0.22701-0.08255 0.42192t-0.2316 0.33937q-0.14676 0.14446-0.35542 0.22701t-0.45861 0.08255q-0.24765 0-0.44944-0.07796-0.1995-0.08026-0.34166-0.22472-0.14217-0.14676-0.22013-0.35313-0.07567-0.20867-0.07567-0.46549 0-0.21555 0.09631-0.45861t0.30498-0.52282l0.83238-1.1213q0.0321-0.04127 0.08943-0.06879 0.05733-0.02981 0.1307-0.02981h0.3623l-1.1396 1.4423q0.11694-0.08026 0.25912-0.12382 0.14217-0.04586 0.30727-0.04586zm-0.84843 0.99977q0 0.15822 0.04586 0.28892t0.133 0.22472q0.08943 0.09401 0.21555 0.14676 0.12841 0.05045 0.29122 0.05045 0.1651 0 0.2981-0.05274t0.22701-0.14676q0.09631-0.09401 0.14676-0.22243 0.05274-0.12841 0.05274-0.27975 0-0.16051-0.05045-0.28892-0.05045-0.1307-0.14217-0.22013-0.09172-0.09172-0.22013-0.13988-0.12841-0.04815-0.28205-0.04815-0.1651 0-0.2981 0.05733-0.133 0.05503-0.22701 0.15134-0.09172 0.09401-0.14217 0.22013-0.04815 0.12382-0.04815 0.25912zm2.7674-0.4288q0-0.49071-0.12612-0.95391-0.12382-0.4632-0.3646-0.88053-0.02293-0.04357-0.02293-0.07796 0-0.0321 0.01605-0.05274t0.04127-0.03669l0.18115-0.11236q0.17198 0.266 0.29122 0.52511 0.12153 0.25912 0.19491 0.52052 0.07567 0.25912 0.11007 0.52511 0.0344 0.266 0.0344 0.54345 0 0.27975-0.0344 0.54575-0.0344 0.2637-0.11007 0.52511-0.07338 0.26141-0.19491 0.52052-0.11924 0.25912-0.29122 0.52282l-0.18115-0.11007q-0.02522-0.01605-0.04127-0.03669t-0.01605-0.05274q0-0.01834 0.0046-0.03669 0.0046-0.01834 0.01834-0.04357 0.23848-0.41963 0.3646-0.88053 0.12612-0.4632 0.12612-0.95391zm0.97419 1.1603q0-0.05274 0.01834-0.0986 0.02064-0.04815 0.05503-0.08255 0.03669-0.03669 0.08714-0.05733t0.11007-0.02064q0.06879 0 0.12153 0.02522 0.05503 0.02522 0.08943 0.07108 0.03669 0.04357 0.05503 0.10319 0.01834 0.05733 0.01834 0.12612 0 0.10319-0.02981 0.21555-0.02981 0.11007-0.08484 0.21784-0.05503 0.11007-0.13758 0.21325-0.08026 0.10319-0.18344 0.19032l-0.06879-0.0665q-0.02981-0.02752-0.02981-0.06421 0-0.02981 0.0321-0.06191 0.02293-0.02522 0.05733-0.06879 0.03669-0.04127 0.07338-0.09631 0.03669-0.05503 0.0665-0.12153 0.0321-0.0665 0.04586-0.14217h-0.02981q-0.05962 0-0.10777-0.02064t-0.08484-0.05733q-0.0344-0.03898-0.05503-0.08943-0.01834-0.05274-0.01834-0.11465zm3.2646-1.7313q0.1972 0 0.37377 0.0665 0.17656 0.06421 0.30956 0.19032 0.133 0.12382 0.21096 0.30727 0.07796 0.18115 0.07796 0.41504 0 0.22701-0.08255 0.42192t-0.2316 0.33937q-0.14676 0.14446-0.35542 0.22701t-0.45861 0.08255q-0.24765 0-0.44944-0.07796-0.1995-0.08026-0.34167-0.22472-0.14217-0.14676-0.22013-0.35313-0.07567-0.20867-0.07567-0.46549 0-0.21555 0.09631-0.45861t0.30498-0.52282l0.83238-1.1213q0.0321-0.04127 0.08943-0.06879 0.05733-0.02981 0.1307-0.02981h0.3623l-1.1396 1.4423q0.11695-0.08026 0.25912-0.12382 0.14217-0.04586 0.30727-0.04586zm-0.84843 0.99977q0 0.15822 0.04586 0.28892t0.133 0.22472q0.08943 0.09401 0.21555 0.14676 0.12841 0.05045 0.29122 0.05045 0.1651 0 0.2981-0.05274t0.22701-0.14676q0.09631-0.09401 0.14676-0.22243 0.05274-0.12841 0.05274-0.27975 0-0.16051-0.05045-0.28892-0.05045-0.1307-0.14217-0.22013-0.09172-0.09172-0.22013-0.13988-0.12841-0.04815-0.28205-0.04815-0.1651 0-0.2981 0.05733-0.133 0.05503-0.22701 0.15134-0.09172 0.09401-0.14217 0.22013-0.04815 0.12382-0.04815 0.25912zm4.1547-0.17198h0.49759v0.23389q0 0.03669-0.02293 0.06191-0.02064 0.02522-0.0665 0.02522h-0.40816v0.86448h-0.36001v-0.86448h-1.4561q-0.04586 0-0.08026-0.02522-0.0321-0.02752-0.04127-0.0665l-0.04128-0.20867 1.5983-2.1211h0.38065zm-0.36001-1.3552q0-0.05962 0.0023-0.12841 0.0046-0.06879 0.01605-0.14217l-1.1947 1.6258h1.1763zm1.2448 0.99289h1.1328v0.34625h-1.1328zm1.7768 1.5478v-3.3777h0.41046v1.3896q0.14446-0.16739 0.3302-0.26829 0.18803-0.10319 0.4288-0.10319 0.20179 0 0.3646 0.07567 0.1628 0.07567 0.27746 0.22701 0.11465 0.14905 0.17656 0.37148 0.0619 0.22013 0.0619 0.50906 0 0.25682-0.0688 0.47925-0.0688 0.22013-0.19949 0.38294-0.12841 0.16051-0.31645 0.25453-0.18573 0.09172-0.41962 0.09172-0.22472 0-0.38294-0.08714-0.15593-0.08714-0.27288-0.24306l-0.0206 0.21096q-0.0183 0.08714-0.10548 0.08714zm1.0365-2.0339q-0.19949 0-0.35083 0.09172-0.14905 0.09172-0.27517 0.25912v1.1236q0.11007 0.15134 0.24306 0.21326 0.13529 0.06191 0.30039 0.06191 0.32562 0 0.49989-0.2316t0.17427-0.6604q0-0.22701-0.0413-0.38982-0.039-0.16281-0.11466-0.26599-0.0757-0.10548-0.18573-0.15364-0.11007-0.04815-0.24995-0.04815zm2.0336-0.28892v2.3229h-0.40816v-2.3229zm0.0917-0.72919q0 0.05962-0.0252 0.11236-0.0229 0.05045-0.0642 0.09172-0.039 0.03898-0.0917 0.06191t-0.11236 0.02293q-0.0596 0-0.11236-0.02293-0.0504-0.02293-0.0917-0.06191-0.039-0.04127-0.0619-0.09172-0.0229-0.05274-0.0229-0.11236t0.0229-0.11236q0.0229-0.05503 0.0619-0.09401 0.0413-0.04127 0.0917-0.06421 0.0527-0.02293 0.11236-0.02293 0.0596 0 0.11236 0.02293 0.0527 0.02293 0.0917 0.06421 0.0413 0.03898 0.0642 0.09401 0.0252 0.05274 0.0252 0.11236zm1.3984 3.0887q-0.27517 0-0.42422-0.15364-0.14675-0.15364-0.14675-0.44256v-1.4217h-0.27976q-0.0367 0-0.0619-0.02064-0.0252-0.02293-0.0252-0.06879v-0.16281l0.38065-0.04815 0.094-0.71773q5e-3 -0.0344 0.0298-0.05503 0.0252-0.02293 0.0642-0.02293h0.20637v0.80028h0.66499v0.2958h-0.66499v1.3942q0 0.14676 0.0711 0.21784 0.0711 0.07109 0.18344 0.07109 0.0642 0 0.11007-0.01605 0.0481-0.01834 0.0825-0.03898t0.0573-0.03669q0.0252-0.01834 0.0436-0.01834 0.0321 0 0.0573 0.03898l0.11924 0.19491q-0.10548 0.0986-0.25453 0.15593-0.14905 0.05503-0.30727 0.05503zm2.352-1.479q0 0.49071 0.12612 0.95391 0.12612 0.4609 0.3646 0.88053 0.0138 0.02522 0.0183 0.04357 5e-3 0.01835 5e-3 0.03669 0 0.0321-0.0161 0.05274-0.016 0.02064-0.0413 0.03669l-0.18115 0.11007q-0.17198-0.2637-0.29351-0.52282-0.11924-0.25912-0.19491-0.52052-0.0734-0.26141-0.10777-0.52511-0.0344-0.26599-0.0344-0.54575 0-0.27746 0.0344-0.54345t0.10777-0.52511q0.0757-0.26141 0.19491-0.52052 0.12153-0.25912 0.29351-0.52511l0.18115 0.11236q0.0252 0.01605 0.0413 0.03669t0.0161 0.05274q0 0.0344-0.0229 0.07796-0.24077 0.41734-0.36689 0.88053-0.12383 0.4632-0.12383 0.95391zm1.6575 0.25224-0.78194-1.1328h0.39212q0.0504 0 0.0734 0.01605 0.0229 0.01605 0.0413 0.04586l0.56868 0.87136q0.0206-0.06421 0.0596-0.12841l0.49988-0.73378q0.0229-0.0321 0.0459-0.05045 0.0229-0.02064 0.0573-0.02064h0.37606l-0.78193 1.1098 0.81403 1.213h-0.39211q-0.0504 0-0.0803-0.02522-0.0275-0.02752-0.0459-0.05962l-0.58473-0.91034q-0.016 0.0665-0.0481 0.11924l-0.54116 0.7911q-0.0229 0.0321-0.0504 0.05962-0.0252 0.02522-0.0711 0.02522h-0.3646zm2.9898-0.82321q0.1972 0 0.37376 0.0665 0.17657 0.06421 0.30957 0.19032 0.13299 0.12382 0.21096 0.30727 0.078 0.18115 0.078 0.41504 0 0.22701-0.0825 0.42192t-0.2316 0.33937q-0.14675 0.14446-0.35542 0.22701t-0.45861 0.08255q-0.24765 0-0.44944-0.07796-0.1995-0.08026-0.34167-0.22472-0.14216-0.14676-0.22013-0.35313-0.0757-0.20867-0.0757-0.46549 0-0.21555 0.0963-0.45861t0.30498-0.52282l0.83237-1.1213q0.0321-0.04127 0.0894-0.06879 0.0573-0.02981 0.13071-0.02981h0.3623l-1.1396 1.4423q0.11695-0.08026 0.25912-0.12382 0.14217-0.04586 0.30727-0.04586zm-0.84843 0.99977q0 0.15822 0.0459 0.28892t0.13299 0.22472q0.0894 0.09401 0.21555 0.14676 0.12841 0.05045 0.29122 0.05045 0.1651 0 0.2981-0.05274 0.13299-0.05274 0.22701-0.14676 0.0963-0.09401 0.14675-0.22243 0.0528-0.12841 0.0528-0.27975 0-0.16051-0.0504-0.28892-0.0505-0.1307-0.14217-0.22013-0.0917-0.09172-0.22013-0.13988-0.12842-0.04815-0.28205-0.04815-0.1651 0-0.2981 0.05733-0.13299 0.05503-0.22701 0.15134-0.0917 0.09401-0.14217 0.22013-0.0481 0.12382-0.0481 0.25912zm4.1547-0.17198h0.49759v0.23389q0 0.03669-0.0229 0.06191-0.0206 0.02522-0.0665 0.02522h-0.40816v0.86448h-0.36001v-0.86448h-1.4561q-0.0459 0-0.0803-0.02522-0.0321-0.02752-0.0413-0.0665l-0.0413-0.20867 1.5983-2.1211h0.38065zm-0.36001-1.3552q0-0.05962 2e-3 -0.12841 5e-3 -0.06879 0.0161-0.14217l-1.1947 1.6258h1.1763zm1.6988 1.0984q0-0.49071-0.12612-0.95391-0.12382-0.4632-0.36459-0.88053-0.0229-0.04357-0.0229-0.07796 0-0.0321 0.016-0.05274 0.0161-0.02064 0.0413-0.03669l0.18115-0.11236q0.17198 0.266 0.29122 0.52511 0.12153 0.25912 0.19491 0.52052 0.0757 0.25912 0.11007 0.52511 0.0344 0.266 0.0344 0.54345 0 0.27975-0.0344 0.54575-0.0344 0.2637-0.11007 0.52511-0.0734 0.26141-0.19491 0.52052-0.11924 0.25912-0.29122 0.52282l-0.18115-0.11007q-0.0252-0.01605-0.0413-0.03669-0.016-0.02064-0.016-0.05274 0-0.01834 5e-3 -0.03669 5e-3 -0.01834 0.0183-0.04357 0.23847-0.41963 0.36459-0.88053 0.12612-0.4632 0.12612-0.95391zm0.97419 1.1603q0-0.05274 0.0183-0.0986 0.0206-0.04815 0.055-0.08255 0.0367-0.03669 0.0871-0.05733t0.11006-0.02064q0.0688 0 0.12153 0.02522 0.055 0.02522 0.0894 0.07108 0.0367 0.04357 0.055 0.10319 0.0183 0.05733 0.0183 0.12612 0 0.10319-0.0298 0.21555-0.0298 0.11007-0.0848 0.21784-0.055 0.11007-0.13759 0.21325-0.0803 0.10319-0.18344 0.19032l-0.0688-0.0665q-0.0298-0.02752-0.0298-0.06421 0-0.02981 0.0321-0.06191 0.0229-0.02522 0.0573-0.06879 0.0367-0.04127 0.0734-0.09631 0.0367-0.05503 0.0665-0.12153 0.0321-0.0665 0.0459-0.14217h-0.0298q-0.0596 0-0.10778-0.02064-0.0481-0.02064-0.0848-0.05733-0.0344-0.03898-0.055-0.08943-0.0183-0.05274-0.0183-0.11465zm3.8149 0.28205h-0.18115q-0.0596 0-0.0963-0.01834t-0.0481-0.07796l-0.0459-0.21555q-0.0917 0.08255-0.17886 0.14905-0.0871 0.06421-0.18344 0.11007-0.0963 0.04357-0.20638 0.0665-0.10777 0.02293-0.24077 0.02293-0.13529 0-0.25453-0.03669-0.11695-0.03898-0.20408-0.11465-0.0871-0.07567-0.13988-0.19032-0.0504-0.11695-0.0504-0.27517 0-0.13758 0.0757-0.2637 0.0757-0.12841 0.24306-0.22701 0.16969-0.0986 0.44256-0.16051 0.27287-0.0642 0.66728-0.07338v-0.18115q0-0.27058-0.11695-0.40816-0.11465-0.13988-0.34166-0.13988-0.14905 0-0.25224 0.03898-0.10089 0.03669-0.17656 0.08484-0.0734 0.04586-0.12841 0.08484-0.0528 0.03669-0.10549 0.03669-0.0413 0-0.0734-0.02064-0.0298-0.02293-0.0482-0.05503l-0.0734-0.1307q0.19262-0.18574 0.41505-0.27746 0.22242-0.09172 0.493-0.09172 0.19491 0 0.34626 0.06421 0.15134 0.06421 0.25453 0.17886 0.10318 0.11465 0.15592 0.27746 0.0527 0.16281 0.0527 0.35772zm-1.0594-0.24994q0.10778 0 0.1972-0.02064 0.0894-0.02293 0.1674-0.06191 0.0802-0.04127 0.15134-0.0986 0.0734-0.05733 0.14217-0.1307v-0.48383q-0.28205 0.0092-0.47925 0.04586-0.1972 0.0344-0.32103 0.09172-0.12382 0.05733-0.18115 0.13529-0.055 0.07796-0.055 0.17427 0 0.09172 0.0298 0.15822t0.0803 0.11007q0.0504 0.04127 0.11924 0.06191 0.0688 0.01834 0.14905 0.01834zm1.7447 0.24994v-2.3229h0.24307q0.0871 0 0.11006 0.08484l0.0321 0.25224q0.15134-0.16739 0.33708-0.27058 0.18803-0.10319 0.43338-0.10319 0.19033 0 0.33479 0.06421 0.14676 0.06191 0.24306 0.17886 0.0986 0.11465 0.14905 0.27746 0.0504 0.16281 0.0504 0.36001v1.479h-0.40816v-1.479q0-0.2637-0.12154-0.40816-0.11923-0.14676-0.36688-0.14676-0.18116 0-0.33938 0.08714-0.15592 0.08714-0.28892 0.23618v1.7106zm4.251 0q-0.0871 0-0.11006-0.08484l-0.0367-0.28205q-0.14905 0.18115-0.34167 0.29122-0.19032 0.10777-0.43797 0.10777-0.1995 0-0.3623-0.07567-0.16281-0.07796-0.27746-0.22701-0.11466-0.14905-0.17657-0.37148-0.0619-0.22243-0.0619-0.51135 0-0.25682 0.0688-0.47696 0.0688-0.22243 0.1972-0.38523 0.13071-0.16281 0.31644-0.25453 0.18574-0.09401 0.42193-0.09401 0.21325 0 0.36459 0.07338 0.15134 0.07109 0.27058 0.20179v-1.2887h0.40817v3.3777zm-0.7911-0.2981q0.19949 0 0.34854-0.09172 0.15134-0.09172 0.27746-0.25912v-1.1236q-0.11236-0.15134-0.24765-0.21096-0.13299-0.06191-0.2958-0.06191-0.32562 0-0.49989 0.2316t-0.17427 0.6604q0 0.22701 0.039 0.38982 0.039 0.16051 0.11466 0.266 0.0757 0.10319 0.18573 0.15134 0.11007 0.04815 0.25224 0.04815zm5.5049 0.2981h-0.34396q-0.0596 0-0.0963-0.02981t-0.055-0.07567l-0.30727-0.7934h-1.4744l-0.30727 0.7934q-0.0161 0.04127-0.055 0.07338-0.039 0.0321-0.0963 0.0321h-0.34396l1.3139-3.2859h0.45174zm-2.1532-1.2199h1.2268l-0.51594-1.3369q-0.0504-0.12382-0.0986-0.30956-0.0252 0.09401-0.0504 0.17427-0.0229 0.07796-0.0459 0.13758zm3.1228-0.15134v1.3712h-0.44256v-3.2859h0.92868q0.31186 0 0.53887 0.06421 0.22701 0.06191 0.37377 0.18115 0.14905 0.11924 0.22013 0.28892 0.0711 0.16739 0.0711 0.37606 0 0.17427-0.055 0.32561t-0.16051 0.27287q-0.10319 0.11924-0.25453 0.20408-0.14905 0.08484-0.33937 0.12841 0.0825 0.04815 0.14675 0.13988l0.9585 1.3047h-0.3944q-0.12154 0-0.17886-0.09401l-0.85302-1.174q-0.039-0.05503-0.0848-0.07796-0.0459-0.02522-0.13759-0.02522zm0-0.32332h0.46549q0.19491 0 0.34166-0.04586 0.14905-0.04815 0.24765-0.133 0.1009-0.08714 0.15134-0.20638 0.0505-0.11924 0.0505-0.2637 0-0.29351-0.19491-0.44256-0.19262-0.14905-0.57556-0.14905h-0.48612zm4.1478 0.50676q0.0321 0.05503 0.055 0.11695 0.0252 0.05962 0.0482 0.12153 0.0229-0.06421 0.0481-0.12153 0.0252-0.05962 0.0573-0.11924l1.1121-2.0202q0.0298-0.05274 0.0619-0.06421t0.0917-0.01147h0.32791v3.2859h-0.38982v-2.4146q0-0.04815 2e-3 -0.10319 2e-3 -0.05503 7e-3 -0.11236l-1.1259 2.0546q-0.0573 0.10319-0.16051 0.10319h-0.0642q-0.10318 0-0.16051-0.10319l-1.1511-2.0615q7e-3 0.05962 9e-3 0.11694 5e-3 0.05733 5e-3 0.10548v2.4146h-0.38982v-3.2859h0.32791q0.0596 0 0.0917 0.01147 0.0321 0.01146 0.0619 0.06421l1.1351 2.0225zm3.7602-0.8255q0.1972 0 0.37377 0.0665 0.17656 0.06421 0.30956 0.19032 0.133 0.12382 0.21096 0.30727 0.078 0.18115 0.078 0.41504 0 0.22701-0.0825 0.42192t-0.2316 0.33937q-0.14676 0.14446-0.35543 0.22701-0.20866 0.08255-0.45861 0.08255-0.24765 0-0.44944-0.07796-0.19949-0.08026-0.34166-0.22472-0.14217-0.14676-0.22013-0.35313-0.0757-0.20867-0.0757-0.46549 0-0.21555 0.0963-0.45861t0.30498-0.52282l0.83238-1.1213q0.0321-0.04127 0.0894-0.06879 0.0573-0.02981 0.1307-0.02981h0.3623l-1.1396 1.4423q0.11694-0.08026 0.25911-0.12382 0.14217-0.04586 0.30727-0.04586zm-0.84843 0.99977q0 0.15822 0.0459 0.28892t0.133 0.22472q0.0894 0.09401 0.21555 0.14676 0.12841 0.05045 0.29121 0.05045 0.1651 0 0.2981-0.05274t0.22701-0.14676q0.0963-0.09401 0.14676-0.22243 0.0527-0.12841 0.0527-0.27975 0-0.16051-0.0504-0.28892-0.0504-0.1307-0.14217-0.22013-0.0917-0.09172-0.22013-0.13988-0.12841-0.04815-0.28205-0.04815-0.1651 0-0.29809 0.05733-0.133 0.05503-0.22702 0.15134-0.0917 0.09401-0.14217 0.22013-0.0481 0.12382-0.0481 0.25912zm4.1547-0.17198h0.4976v0.23389q0 0.03669-0.0229 0.06191-0.0206 0.02522-0.0665 0.02522h-0.40817v0.86448h-0.36001v-0.86448h-1.4561q-0.0459 0-0.0803-0.02522-0.0321-0.02752-0.0413-0.0665l-0.0413-0.20867 1.5983-2.1211h0.38064zm-0.36001-1.3552q0-0.05962 2e-3 -0.12841 5e-3 -0.06879 0.0161-0.14217l-1.1947 1.6258h1.1763zm1.9988-0.74524h0.36918q0.0596 0 0.0986 0.02981t0.0527 0.07567l0.67875 2.2839q0.0183 0.06191 0.0321 0.133 0.0161 0.07108 0.0298 0.14905 0.0161-0.07796 0.0321-0.14905 0.016-0.07338 0.0367-0.133l0.77276-2.2839q0.0138-0.03898 0.0527-0.07108 0.0413-0.0344 0.0986-0.0344h0.12841q0.0596 0 0.0963 0.02981 0.039 0.02981 0.055 0.07567l0.76818 2.2839q0.0413 0.11924 0.0734 0.27287 0.0137-0.07567 0.0252-0.14446t0.0298-0.12841l0.68104-2.2839q0.0115-0.04127 0.0504-0.07338 0.0413-0.0321 0.0986-0.0321h0.34626l-1.025 3.2859h-0.39899l-0.83238-2.5063q-0.0252-0.07108-0.0459-0.1651-0.0115 0.04586-0.0229 0.08943-9e-3 0.04127-0.0206 0.07567l-0.83696 2.5063h-0.399zm5.4961 0.96308v2.3229h-0.40816v-2.3229zm0.0917-0.72919q0 0.05962-0.0252 0.11236-0.0229 0.05045-0.0642 0.09172-0.039 0.03898-0.0917 0.06191t-0.11236 0.02293q-0.0596 0-0.11235-0.02293-0.0505-0.02293-0.0917-0.06191-0.039-0.04127-0.0619-0.09172-0.0229-0.05274-0.0229-0.11236t0.0229-0.11236q0.0229-0.05503 0.0619-0.09401 0.0413-0.04127 0.0917-0.06421 0.0527-0.02293 0.11235-0.02293 0.0596 0 0.11236 0.02293 0.0527 0.02293 0.0917 0.06421 0.0413 0.03898 0.0642 0.09401 0.0252 0.05274 0.0252 0.11236zm0.69444 3.0521v-2.3229h0.24306q0.0871 0 0.11007 0.08484l0.0321 0.25224q0.15134-0.16739 0.33708-0.27058 0.18803-0.10319 0.43339-0.10319 0.19032 0 0.33478 0.06421 0.14676 0.06191 0.24307 0.17886 0.0986 0.11465 0.14905 0.27746 0.0504 0.16281 0.0504 0.36001v1.479h-0.40816v-1.479q0-0.2637-0.12153-0.40816-0.11924-0.14676-0.36689-0.14676-0.18115 0-0.33937 0.08714-0.15593 0.08714-0.28893 0.23618v1.7106zm4.251 0q-0.0871 0-0.11006-0.08484l-0.0367-0.28205q-0.14905 0.18115-0.34167 0.29122-0.19032 0.10777-0.43797 0.10777-0.1995 0-0.3623-0.07567-0.16281-0.07796-0.27746-0.22701-0.11466-0.14905-0.17657-0.37148-0.0619-0.22243-0.0619-0.51135 0-0.25682 0.0688-0.47696 0.0688-0.22243 0.1972-0.38523 0.13071-0.16281 0.31645-0.25453 0.18573-0.09401 0.42192-0.09401 0.21325 0 0.36459 0.07338 0.15134 0.07109 0.27058 0.20179v-1.2887h0.40817v3.3777zm-0.7911-0.2981q0.1995 0 0.34854-0.09172 0.15135-0.09172 0.27746-0.25912v-1.1236q-0.11236-0.15134-0.24765-0.21096-0.13299-0.06191-0.2958-0.06191-0.32561 0-0.49989 0.2316-0.17427 0.2316-0.17427 0.6604 0 0.22701 0.039 0.38982 0.039 0.16051 0.11466 0.266 0.0757 0.10319 0.18573 0.15134 0.11007 0.04815 0.25224 0.04815zm2.7261-2.0615q0.25453 0 0.45861 0.08484 0.20638 0.08484 0.34855 0.24077 0.14446 0.15593 0.22013 0.37835 0.078 0.22013 0.078 0.49301 0 0.27517-0.078 0.4953-0.0757 0.22013-0.22013 0.37606-0.14217 0.15593-0.34855 0.24077-0.20408 0.08255-0.45861 0.08255t-0.4609-0.08255q-0.20408-0.08484-0.34854-0.24077-0.14447-0.15593-0.22243-0.37606-0.078-0.22013-0.078-0.4953 0-0.27287 0.078-0.49301 0.078-0.22243 0.22243-0.37835 0.14446-0.15593 0.34854-0.24077 0.20637-0.08484 0.4609-0.08484zm0 2.0729q0.34396 0 0.51365-0.22931 0.16968-0.2316 0.16968-0.64435 0-0.41504-0.16968-0.64664-0.16969-0.2316-0.51365-0.2316-0.17427 0-0.30268 0.05962t-0.21555 0.17198q-0.0848 0.11236-0.12841 0.27746-0.0413 0.16281-0.0413 0.36918t0.0413 0.36918q0.0436 0.16281 0.12841 0.27517 0.0871 0.11007 0.21555 0.16969 0.12841 0.05962 0.30268 0.05962zm1.3732-2.0362h0.32102q0.0504 0 0.0825 0.02522t0.0436 0.05962l0.44485 1.4951q0.0183 0.08255 0.0344 0.16051 0.0161 0.07567 0.0275 0.15364 0.0183-0.07796 0.0413-0.15364 0.0229-0.07796 0.0482-0.16051l0.49071-1.5042q0.0115-0.0344 0.039-0.05733 0.0298-0.02293 0.0734-0.02293h0.17656q0.0459 0 0.0757 0.02293t0.0413 0.05733l0.47925 1.5042q0.0252 0.08026 0.0436 0.15822 0.0206 0.07796 0.039 0.15363 0.0115-0.07567 0.0298-0.15822t0.039-0.15364l0.45403-1.4951q0.0115-0.03669 0.0436-0.05962 0.0321-0.02522 0.0757-0.02522h0.30727l-0.75212 2.3229h-0.32332q-0.0596 0-0.0825-0.07796l-0.51364-1.5753q-0.0183-0.05274-0.0298-0.10548-0.0115-0.05503-0.0229-0.10777-0.0115 0.05274-0.0229 0.10777-0.0115 0.05503-0.0298 0.10777l-0.52053 1.573q-0.0252 0.07796-0.094 0.07796h-0.30727zm5.2118 0.38294q-0.0275 0.05045-0.0848 0.05045-0.0344 0-0.078-0.02522t-0.10777-0.05503q-0.0619-0.0321-0.14905-0.05733-0.0871-0.02752-0.20637-0.02752-0.10319 0-0.18574 0.02752-0.0825 0.02522-0.14217 0.07108-0.0573 0.04586-0.0894 0.10777-0.0298 0.05962-0.0298 0.1307 0 0.08943 0.0505 0.14905 0.0527 0.05962 0.13758 0.10319 0.0848 0.04357 0.19262 0.07796 0.10777 0.0321 0.22013 0.07108 0.11465 0.03669 0.22243 0.08255 0.10777 0.04586 0.19261 0.11465 0.0849 0.06879 0.13529 0.16969 0.0527 0.0986 0.0527 0.23848 0 0.16051-0.0573 0.2981-0.0573 0.13529-0.16969 0.23618-0.11236 0.0986-0.27516 0.15593-0.16281 0.05733-0.37607 0.05733-0.24306 0-0.44026-0.07796-0.19721-0.08026-0.33479-0.20408l0.0963-0.15593q0.0183-0.02981 0.0436-0.04586 0.0252-0.01605 0.0665-0.01605t0.0871 0.0321q0.0459 0.0321 0.11007 0.07108 0.0665 0.03898 0.15822 0.07109 0.094 0.0321 0.23389 0.0321 0.11924 0 0.20867-0.02981 0.0894-0.0321 0.14905-0.08484 0.0596-0.05274 0.0871-0.12153 0.0298-0.06879 0.0298-0.14676 0-0.09631-0.0527-0.15822-0.0504-0.06421-0.13529-0.10777-0.0848-0.04586-0.19491-0.07796-0.10777-0.0344-0.22242-0.07108-0.11236-0.03669-0.22243-0.08255-0.10777-0.04816-0.19262-0.11924-0.0848-0.07108-0.13758-0.17427-0.0505-0.10548-0.0505-0.25453 0-0.133 0.055-0.25453 0.055-0.12382 0.16051-0.21555 0.10548-0.09402 0.25912-0.14905 0.15363-0.05503 0.35083-0.05503 0.22931 0 0.41046 0.07338 0.18345 0.07108 0.31644 0.1972z"/>
   </g>
  </g>
  <g transform="matrix(.23396 0 0 .23396 21.278 11.027)">
   <rect transform="rotate(-45)" x="-32.024" y="65.054" width="32.529" height="32.529" fill="#71b21f"/>
   <rect transform="rotate(-45)" x="-72.49" y="105.52" width="32.529" height="32.529" fill="#71b21f"/>
   <rect transform="rotate(-45)" x="-32.024" y="105.52" width="32.529" height="32.529"/>
   <rect transform="rotate(-45)" x="8.4423" y="65.054" width="32.529" height="32.529"/>
   <rect transform="rotate(-45)" x="8.4423" y="105.52" width="32.529" height="32.529" fill="#71b21f"/>
   <rect transform="rotate(-45)" x="48.908" y="105.52" width="32.529" height="32.529"/>
   <rect transform="rotate(-45)" x="-32.024" y="145.99" width="32.529" height="32.529" fill="#71b21f"/>
   <rect transform="rotate(-45)" x="8.4423" y="145.99" width="32.529" height="32.529"/>
  </g>
  <text transform="scale(.26458)" font-family="Russo" font-size="40px" style="shape-inside:url(#rect38789);white-space:pre" xml:space="preserve"/>
  <text transform="matrix(.26458 0 0 .26458 11.062 9.6323)" font-family="Russo" font-size="40px" style="shape-inside:url(#rect68251);white-space:pre" xml:space="preserve"/>
 </g>
 <path d="m35.379 13.886v-9.4147h1.3856q0.44045 0 0.57809 0.41292l0.14682 0.69738q0.24775-0.27528 0.51386-0.50469 0.27528-0.2294 0.5781-0.39457 0.31199-0.16517 0.66068-0.25693 0.35787-0.10094 0.77997-0.10094 0.89008 0 1.459 0.48633 0.57809 0.47716 0.86255 1.2755 0.22023-0.46798 0.55057-0.79832 0.33034-0.33952 0.72491-0.55057 0.39457-0.21105 0.83502-0.31199 0.44963-0.10094 0.89926-0.10094 0.77997 0 1.3856 0.23858 0.60562 0.23858 1.0185 0.69738 0.41292 0.4588 0.62398 1.1195 0.22023 0.66068 0.22023 1.5141v5.992h-2.2665v-5.992q0-0.89926-0.39457-1.3489-0.39457-0.4588-1.1562-0.4588-0.34869 0-0.6515 0.11929-0.29364 0.11929-0.52304 0.34869-0.22023 0.22023-0.34869 0.55974-0.12846 0.33952-0.12846 0.77997v5.992h-2.2757v-5.992q0-0.94514-0.3854-1.3764-0.37622-0.43128-1.1195-0.43128-0.48633 0-0.91761 0.24775-0.4221 0.23858-0.78914 0.66068v6.8913zm18.138-9.4147v9.4147h-2.2665v-9.4147zm0.33952-2.7437q0 0.29364-0.11929 0.55057t-0.32116 0.44963q-0.1927 0.1927-0.4588 0.31199-0.26611 0.11011-0.56892 0.11011-0.29364 0-0.55974-0.11011-0.25693-0.11929-0.44963-0.31199t-0.31199-0.44963q-0.11011-0.25693-0.11011-0.55057 0-0.30281 0.11011-0.56892 0.11929-0.26611 0.31199-0.45881 0.1927-0.1927 0.44963-0.30281 0.26611-0.11929 0.55974-0.11929 0.30281 0 0.56892 0.11929 0.26611 0.11011 0.4588 0.30281 0.20188 0.1927 0.32116 0.45881 0.11929 0.26611 0.11929 0.56892zm2.493 12.158v-9.4147h1.3856q0.44045 0 0.57809 0.41292l0.15599 0.74326q0.28446-0.29364 0.59645-0.53221 0.32116-0.23858 0.66986-0.41292 0.35787-0.17435 0.76162-0.26611t0.8809-0.091761q0.77079 0 1.3672 0.26611 0.59645 0.25693 0.99102 0.73409 0.40375 0.46798 0.60562 1.1287 0.21105 0.6515 0.21105 1.4406v5.992h-2.2665v-5.992q0-0.86255-0.40375-1.3305-0.39457-0.47716-1.1929-0.47716-0.58727 0-1.1011 0.26611t-0.97267 0.72491v6.8087zm13.963-9.5798q0.60562 0 1.1378 0.12847 0.53221 0.11929 0.97267 0.35787h2.7069v0.8442q0 0.21105-0.11011 0.33034-0.11011 0.11929-0.37622 0.16517l-0.8442 0.15599q0.09176 0.23858 0.13764 0.50469 0.05506 0.26611 0.05506 0.55974 0 0.69738-0.28446 1.2663-0.27528 0.55974-0.77079 0.95431-0.48633 0.39457-1.1654 0.6148-0.66986 0.21105-1.459 0.21105-0.53221 0-1.0369-0.10094-0.44045 0.26611-0.44045 0.59645 0 0.28446 0.25693 0.4221 0.26611 0.12847 0.68821 0.18352 0.43128 0.05506 0.97267 0.07341 0.54139 0.0092 1.1103 0.05506 0.56892 0.04588 1.1103 0.16517 0.54139 0.11011 0.96349 0.35787 0.43128 0.24776 0.68821 0.67903 0.26611 0.4221 0.26611 1.092 0 0.62397-0.31199 1.2112-0.30281 0.58727-0.89008 1.0461-0.5781 0.4588-1.4223 0.73409-0.8442 0.28446-1.927 0.28446-1.0736 0-1.8627-0.21105-0.78914-0.20187-1.3122-0.55057-0.51386-0.33952-0.77079-0.78914-0.25693-0.44963-0.25693-0.93596 0-0.66068 0.40375-1.1103t1.1195-0.71574q-0.34869-0.1927-0.55974-0.51386-0.21105-0.32116-0.21105-0.83502 0-0.21105 0.07341-0.43128 0.07341-0.2294 0.22023-0.44963 0.15599-0.22023 0.3854-0.41292 0.2294-0.20188 0.54139-0.35787-0.71574-0.3854-1.1287-1.0277-0.40375-0.64233-0.40375-1.5049 0-0.69738 0.27528-1.2571 0.28446-0.56892 0.77997-0.96349 0.50468-0.40375 1.1837-0.6148 0.68821-0.21105 1.4957-0.21105zm2.4867 10.002q0-0.27528-0.16517-0.44963t-0.44963-0.26611q-0.28446-0.10094-0.66986-0.14682-0.37622-0.04588-0.8075-0.06423-0.4221-0.02753-0.8809-0.04588-0.44963-0.02753-0.87173-0.08258-0.3854 0.21105-0.62398 0.50469-0.2294 0.28446-0.2294 0.66068 0 0.24776 0.11929 0.4588 0.12847 0.22023 0.39457 0.37622 0.27528 0.15599 0.70656 0.23858 0.43128 0.09176 1.0553 0.09176 0.63315 0 1.092-0.10094 0.4588-0.09176 0.75244-0.26611 0.30281-0.16517 0.44045-0.40375 0.13764-0.2294 0.13764-0.50468zm-2.4867-5.3588q0.4221 0 0.73409-0.11011 0.31199-0.11929 0.51386-0.32116 0.21105-0.20187 0.31199-0.48633 0.11011-0.28446 0.11011-0.62397 0-0.69738-0.4221-1.1011-0.41292-0.41292-1.248-0.41292t-1.2571 0.41292q-0.41292 0.40375-0.41292 1.1011 0 0.33034 0.10094 0.6148 0.11011 0.28446 0.31199 0.49551 0.21105 0.20187 0.52304 0.32116 0.32116 0.11011 0.73409 0.11011zm5.3651-4.4779h1.7985q0.25693 0 0.43128 0.11929t0.22023 0.30281l1.3489 5.0285q0.11011 0.41292 0.17435 0.8075 0.07341 0.39457 0.13764 0.78914 0.10094-0.39457 0.21105-0.78914 0.11929-0.39457 0.24775-0.8075l1.5599-5.0469q0.05506-0.18352 0.22023-0.30281 0.16517-0.11929 0.3854-0.11929h1.0002q0.24775 0 0.41292 0.11929t0.22023 0.30281l1.5416 5.1386q0.11929 0.39457 0.21105 0.77079 0.10094 0.36704 0.1927 0.74326 0.06423-0.39457 0.13764-0.78914 0.08258-0.39457 0.20187-0.81667l1.3948-5.0285q0.04588-0.18352 0.22023-0.30281t0.40375-0.11929h1.7159l-2.9822 9.4147h-1.826q-0.29364 0-0.4221-0.40375l-1.6976-5.4414q-0.08258-0.26611-0.15599-0.53221-0.06423-0.27528-0.11011-0.54139-0.05506 0.27528-0.11929 0.55057-0.06423 0.26611-0.14682 0.54139l-1.7159 5.4231q-0.12846 0.40375-0.49551 0.40375h-1.7343zm15.642 2.9272h4.7532v1.8903h-4.7532zm6.0075-2.9272h1.7985q0.25693 0 0.43128 0.11929t0.22023 0.30281l1.3489 5.0285q0.11012 0.41292 0.17435 0.8075 0.0734 0.39457 0.13764 0.78914 0.10094-0.39457 0.21105-0.78914 0.11929-0.39457 0.24776-0.8075l1.5599-5.0469q0.0551-0.18352 0.22023-0.30281 0.16517-0.11929 0.3854-0.11929h1.0002q0.24776 0 0.41293 0.11929t0.22022 0.30281l1.5416 5.1386q0.11929 0.39457 0.21105 0.77079 0.10093 0.36704 0.1927 0.74326 0.0642-0.39457 0.13764-0.78914 0.0826-0.39457 0.20187-0.81667l1.3948-5.0285q0.0459-0.18352 0.22022-0.30281 0.17435-0.11929 0.40375-0.11929h1.7159l-2.9822 9.4147h-1.826q-0.29364 0-0.4221-0.40375l-1.6976-5.4414q-0.0826-0.26611-0.156-0.53221-0.0642-0.27528-0.11011-0.54139-0.0551 0.27528-0.11929 0.55057-0.0642 0.26611-0.14682 0.54139l-1.7159 5.4231q-0.12846 0.40375-0.49551 0.40375h-1.7343zm20.873 1.1287q0.75244 0 1.459 0.24775 0.71574 0.24775 1.2571 0.75244 0.54139 0.49551 0.87173 1.2388t0.33034 1.7343q0 0.92679-0.33952 1.7435-0.33951 0.8075-0.95431 1.4131-0.6148 0.60562-1.4865 0.95431-0.86255 0.34869-1.9086 0.34869-1.0644 0-1.9086-0.33952t-1.4406-0.94514q-0.59645-0.6148-0.91761-1.4682-0.31199-0.86255-0.31199-1.9086 0-0.93596 0.37622-1.9178 0.38539-0.99102 1.1837-2.0554l3.1658-4.2485q0.16517-0.22023 0.47716-0.37622 0.32116-0.15599 0.73409-0.15599h2.0187l-3.9366 4.8175q-0.12847 0.15599-0.24775 0.29364-0.11012 0.13764-0.22023 0.28446 0.3854-0.1927 0.82585-0.30281 0.44963-0.11011 0.97266-0.11011zm-3.1749 4.1201q0 0.55057 0.14682 1.0094 0.156 0.44963 0.44963 0.77079 0.30281 0.32116 0.74326 0.50469 0.44046 0.17435 1.0186 0.17435 0.54139 0 0.99102-0.18352 0.45881-0.18352 0.77997-0.51386 0.33034-0.33034 0.51386-0.77079 0.18352-0.44963 0.18352-0.97267 0-0.56892-0.17434-1.0185-0.17435-0.4588-0.49551-0.77079-0.32117-0.32116-0.77079-0.48633-0.44963-0.16517-0.99102-0.16517t-0.98185 0.18352q-0.44045 0.18352-0.76161 0.51386-0.31199 0.32116-0.48634 0.77079-0.16517 0.44045-0.16517 0.95431zm16.588-0.83503h1.67v1.3122q0 0.18352-0.11929 0.32116-0.11929 0.12846-0.34869 0.12846h-1.2021v3.2392h-1.982v-3.2392h-5.5974q-0.2294 0-0.40374-0.13764-0.17435-0.14682-0.22023-0.35787l-0.2294-1.147 6.2856-8.3961h2.1472zm-1.982-4.3403q0-0.29364 0.0183-0.63315t0.0642-0.70656l-4.1201 5.68h4.0375z" stroke-width="1.0368" aria-label="mingw-w64"/>
</svg>
